<?xml version="1.0" encoding="UTF-8"?>
<svg width="48px" height="48px" viewBox="0 0 48 48" version="1.1" xmlns="http://www.w3.org/2000/svg" xmlns:xlink="http://www.w3.org/1999/xlink">
    <!-- Generator: Sketch 57 (83077) - https://sketch.com -->
    <title>buttons/arrow</title>
    <desc>Created with Sketch.</desc>
    <defs>
        <path d="M24,0.5 C36.9786916,0.5 47.5,11.0213084 47.5,24 C47.5,36.9786916 36.9786916,47.5 24,47.5 C11.0213084,47.5 0.5,36.9786916 0.5,24 C0.5,11.0213084 11.0213084,0.5 24,0.5 Z M24,1.5 C11.5735931,1.5 1.5,11.5735931 1.5,24 C1.5,36.4264069 11.5735931,46.5 24,46.5 C36.4264069,46.5 46.5,36.4264069 46.5,24 C46.5,11.5735931 36.4264069,1.5 24,1.5 Z M27.1992188,19.8007812 L30.5742188,23.1757812 C30.6445316,23.2226565 30.6914061,23.2812496 30.7148438,23.3515625 C30.7382814,23.4218754 30.75,23.4921871 30.75,23.5625 C30.75,23.6328129 30.7382814,23.7031246 30.7148438,23.7734375 C30.6914061,23.8437504 30.6445316,23.9023435 30.5742188,23.9492187 L27.1992188,27.3242187 C26.941405,27.6054702 26.6777357,27.6113295 26.4082031,27.3417969 C26.1386705,27.0722643 26.1445298,26.808595 26.4257812,26.5507812 L28.8164062,24.125 L17.8125,24.125 C17.6484367,24.125 17.5136724,24.0722662 17.4082031,23.9667969 C17.3027338,23.8613276 17.25,23.7265633 17.25,23.5625 C17.25,23.3984367 17.2968745,23.2695317 17.390625,23.1757812 C17.5078131,23.0585932 17.6484367,23 17.8125,23 L28.8164062,23 L26.4257812,20.5742187 C26.1445298,20.316405 26.1386705,20.0527357 26.4082031,19.7832031 C26.6777357,19.5136705 26.941405,19.5195298 27.1992188,19.8007812 Z" id="path-1"></path>
    </defs>
    <g id="Home" stroke="none" stroke-width="1" fill="none" fill-rule="evenodd">
        <g id="Home-Large" transform="translate(-510.000000, -1633.000000)">
            <g id="Group-2" transform="translate(511.000000, 1406.000000)">
                <g id="Button/Circle-Arrow" transform="translate(0.000000, 228.000000)">
                    <g id="_Colors/Gold" transform="translate(-1.000000, -1.000000)">
                        <mask id="mask-2" fill="white">
                            <use xlink:href="#path-1"></use>
                        </mask>
                        <use id="Mask" fill="#FFCA04" xlink:href="#path-1"></use>
                        <g id="_Colors/Gold-Dark" mask="url(#mask-2)" fill="#FFB134" fill-rule="nonzero">
                            <g transform="translate(-15.000000, -17.000000)" id="Container-Copy-8">
                                <rect x="0" y="0" width="80" height="80"></rect>
                            </g>
                        </g>
                    </g>
                </g>
            </g>
        </g>
    </g>
</svg>