<?xml version="1.0" encoding="UTF-8"?>
<svg width="468px" height="389px" viewBox="0 0 468 389" version="1.1" xmlns="http://www.w3.org/2000/svg" xmlns:xlink="http://www.w3.org/1999/xlink">
    <!-- Generator: Sketch 57 (83077) - https://sketch.com -->
    <title>Illustrations/Profile Contemplation</title>
    <desc>Created with Sketch.</desc>
    <defs>
        <path d="M83.8710446,2.66030198 C81.7082822,2.67072772 79.546099,2.68115347 77.3833366,2.69215842 L77.3833366,2.69215842 C86.7172723,8.25429208 72.4936634,25.0681188 65.7910693,24.6817871 L65.7910693,24.6817871 C60.5353366,24.3788614 59.8692475,18.672505 53.6201733,21.4550198 L53.6201733,21.4550198 C53.9653812,21.3021089 52.8475099,22.3070347 51.6867772,23.3119604 L51.6867772,23.3119604 C50.5492129,24.2971931 49.3716832,25.2824257 49.4921584,25.1758515 L49.4921584,25.1758515 C47.6971931,26.7588267 46.2080495,26.1373366 45.9010693,28.8891535 L45.9010693,28.8891535 C43.0919109,28.8816238 40.1333168,28.912901 37.6253465,28.3771337 L37.6253465,28.3771337 C36.7744901,28.1958416 36.5410693,26.6348762 34.9766287,26.3145743 L34.9766287,26.3145743 C33.4220347,25.9965891 31.4446188,26.3939257 29.5274406,26.7906832 L29.5274406,26.7906832 C27.4191238,27.2268267 25.3820495,27.6629703 24.0585594,27.1492129 L24.0585594,27.1492129 C17.519302,24.6134406 19.188,15.7168069 11.1827673,19.2088515 L11.1827673,19.2088515 C7.20766337,20.9424208 7.20360891,25.0918663 5.10282178,29.0397475 L5.10282178,29.0397475 C4.32957921,30.4929802 1.88300495,33.2059901 1.57312871,33.8772921 L1.57312871,33.8772921 C0.974227723,35.1712426 -0.680569307,36.1582129 0.675935644,38.2086089 L0.675935644,38.2086089 C2.14075248,40.4223416 6.05619802,39.8008515 8.09558911,41.7226634 L8.09558911,41.7226634 C10.9203861,44.384703 9.45614851,45.5622327 11.6177525,47.8246188 L11.6177525,47.8246188 C13.6878416,49.9920149 16.9725297,50.4721782 19.0049703,52.7646832 L19.0049703,52.7646832 C21.1399307,55.1736089 20.4367723,56.2758416 22.0915693,58.394005 L22.0915693,58.394005 C23.4874604,60.179703 24.4553168,60.3528861 25.9247673,61.7551485 L25.9247673,61.7551485 C28.2149554,63.9416584 28.7014901,65.1516238 30.2948911,67.3769406 L30.2948911,67.3769406 C32.3910446,70.3042574 35.7348119,76.1316683 39.543104,77.2055198 L39.543104,77.2055198 C41.6421535,77.7974703 44.8370644,76.4073713 46.8249059,75.885505 L46.8249059,75.885505 C46.889198,75.8687079 50.2949406,76.2845792 50.3928267,76.286896 L50.3928267,76.286896 C51.0571782,76.3031139 51.3687921,75.8750792 51.6780891,75.4476238 L51.6780891,75.4476238 C52.0522574,74.9298119 52.4235297,74.412 53.4122376,74.6790149 L53.4122376,74.6790149 C57.4724851,75.7754554 62.2219901,83.6625297 65.3531881,85.5281584 L65.3531881,85.5281584 C66.7745644,82.5232277 71.8119356,82.3164505 74.297896,82.7514356 L74.297896,82.7514356 C75.4464653,82.9524208 76.2724158,85.3005297 77.8293267,85.1968515 L77.8293267,85.1968515 C78.6141535,85.1447228 80.5504455,83.2993663 81.8936287,83.0178713 L81.8936287,83.0178713 C83.6260396,82.6547079 85.1505149,82.6651337 86.5985347,82.6755594 L86.5985347,82.6755594 C88.6993218,82.6906188 90.6402475,82.7056782 92.8279158,81.579698 L92.8279158,81.579698 C97.7940446,79.0236535 105.273356,70.2364901 108.412084,65.9625149 L108.412084,65.9625149 C105.790589,64.0766139 105.672431,61.0375099 104.365738,58.3129158 L104.365738,58.3129158 C102.460144,54.3389703 101.355594,53.978703 98.3361832,50.8996337 L98.3361832,50.8996337 C95.4615743,47.967104 94.474604,46.7125396 90.8667178,44.5654158 L90.8667178,44.5654158 C88.4670594,43.1376683 83.5177277,41.8871584 88.7219109,37.9502822 L88.7219109,37.9502822 C89.8206683,37.119698 91.1725396,37.2807178 92.5313614,37.4417376 L92.5313614,37.4417376 C94.1566188,37.6346139 95.7905644,37.8274901 97.0086386,36.3203911 L97.0086386,36.3203911 C97.7616089,35.3890248 97.2356881,31.8465891 97.0468663,30.8045941 L97.0468663,30.8045941 C96.8441436,29.6878812 94.9906782,26.6134455 95.1152079,27.5587129 L95.1152079,27.5587129 C94.2307574,20.8688614 96.7132426,23.1880099 90.9153713,16.9406733 L90.9153713,16.9406733 C87.9000149,13.6913168 87.4841436,15.1972574 87.4905149,9.31366337 L87.4905149,9.31366337 C87.4939901,6.18999505 87.8774257,3.8534703 88.3819158,0.623227723 L88.3819158,0.623227723 C87.3347079,0.242108911 86.3819109,0.0254848194 85.6156188,0.0254848194 L85.6156188,0.0254848194 C84.1768663,0.0254848194 83.3937772,0.788881188 83.8710446,2.66030198 L83.8710446,2.66030198 Z" id="path-1"></path>
        <path d="M44.5613614,7.53723267 C44.0638218,7.77702475 43.671698,7.06054455 43.3033218,6.34348515 L43.3033218,6.34348515 C42.9778069,5.70925248 42.6702475,5.07386139 42.3256188,5.1039802 L42.3256188,5.1039802 C42.4379851,5.09587129 39.459698,5.62410891 40.0829257,5.68724257 L40.0829257,5.68724257 C34.4825644,5.11961881 34.6366337,7.8314703 33.1637079,12.6632228 L33.1637079,12.6632228 C32.7026584,14.1743762 31.6201188,17.1022723 30.8596188,18.352203 L30.8596188,18.352203 C29.5465545,20.5109109 29.7741832,20.2137772 28.4205743,21.8135495 L28.4205743,21.8135495 C25.7718564,24.9435891 21.9600891,27.7446386 20.1825,32.347604 L20.1825,32.347604 C19.5488465,33.9873416 19.834396,37.791 18.884495,39.0386139 L18.884495,39.0386139 C18.0376931,40.1495347 15.9357475,40.2068762 16.0770743,40.0452772 L16.0770743,40.0452772 C13.909099,42.5318168 12.0417327,45.2772624 11.2099901,50.2323861 L11.2099901,50.2323861 C10.6134059,53.7858267 12.3811485,61.2309653 9.3889604,63.366505 L9.3889604,63.366505 C8.76283663,63.8130743 7.4439802,63.7974356 5.98843069,63.781797 L5.98843069,63.781797 C2.88735149,63.748203 -0.83290099,63.7151881 0.21720297,68.155396 L0.21720297,68.155396 C0.580366337,69.6937723 8.23170297,72.336698 10.0428861,73.8275792 L10.0428861,73.8275792 C12.6632228,75.9851287 15.9276386,79.7134901 17.5870693,82.8910248 L17.5870693,82.8910248 C19.2140644,86.0077426 19.4150495,90.1293861 22.1755545,92.3593366 L22.1755545,92.3593366 C23.1995941,93.1858663 25.8245644,92.2487079 27.0912921,93.7789752 L27.0912921,93.7789752 C28.1773069,95.0908812 26.4808069,97.5438267 27.4451881,99.1632921 L27.4451881,99.1632921 C30.1790495,103.751198 36.0713317,101.889624 40.6181139,104.016475 L40.6181139,104.016475 C46.4090347,106.72601 49.1000347,109.649272 55.5002822,110.545307 L55.5002822,110.545307 C57.3357921,110.803054 60.9193515,112.260342 62.784401,111.685767 L62.784401,111.685767 C65.1655248,110.953069 65.7099802,108.81 67.6711782,107.448282 L67.6711782,107.448282 C74.2434505,102.882386 75.1180545,105.554851 80.7624356,107.024881 L80.7624356,107.024881 C90.5632129,109.579188 99.447104,97.8322723 109.330708,97.3660099 L109.330708,97.3660099 C110.504762,97.3109851 111.444817,97.316198 112.240069,97.3214109 L112.240069,97.3214109 C115.028376,97.3393663 116.052995,97.3573218 119.211416,94.7752129 L119.211416,94.7752129 C122.74748,91.8832277 125.638886,87.7650594 128.852332,84.4977475 L128.852332,84.4977475 C134.493817,78.7624307 140.412743,73.2970248 146.19903,67.7082475 L146.19903,67.7082475 C145.135604,67.7082475 143.927376,67.5541782 142.876114,67.7082475 L142.876114,67.7082475 C131.794708,67.7082475 111.780178,62.3824307 103.499243,54.6447921 L103.499243,54.6447921 C99.9156832,51.2958119 91.0700198,43.3299653 96.8846881,38.4350792 L96.8846881,38.4350792 C95.3144554,37.7591436 93.193396,37.9827178 91.1806485,38.2068713 L91.1806485,38.2068713 C87.1238762,38.6580743 83.507302,39.1092772 85.7320396,32.186005 L85.7320396,32.186005 C86.8806089,28.6122921 91.608104,26.6922178 90.7149653,23.0443663 L90.7149653,23.0443663 C90.3286337,21.4608119 86.0668218,17.519302 84.9060891,16.3753663 L84.9060891,16.3753663 C78.3697277,9.9374703 73.6903069,5.74226733 64.9749653,3.97220792 L64.9749653,3.97220792 C63.0757426,3.58645545 61.3809802,3.63568812 59.8489752,3.68492079 L59.8489752,3.68492079 C59.0873168,3.70982673 58.366203,3.73415347 57.6804208,3.70519307 L57.6804208,3.70519307 C52.1906881,3.47408911 52.4826089,3.33855446 47.7325248,0.569361386 L47.7325248,0.569361386 C47.1712723,1.85114851 45.8049208,6.94064851 44.5613614,7.53723267 L44.5613614,7.53723267 Z" id="path-3"></path>
    </defs>
    <g id="Home" stroke="none" stroke-width="1" fill="none" fill-rule="evenodd">
        <g id="Home-Large" transform="translate(-1037.000000, -1344.000000)">
            <g id="Illustrations/Profile-Contemplation" transform="translate(1037.000000, 1344.000000)">
                <path d="M110.999332,173.668031 L110.999332,355.725031 L83.0823449,368.743282 L13.3503318,219.202497 L110.999332,173.668031 Z M235.999332,115.379031 L235.999332,297.436031 L120.999332,351.062031 L120.999332,169.004031 L235.999332,115.379031 Z M354.12206,60.298031 L423.854073,209.838816 L245.999332,292.773031 L245.999332,110.716031 L354.12206,60.298031 Z" id="Combined-Shape" fill="#0050A6" fill-rule="nonzero" opacity="0.05"></path>
                <g id="Group" stroke-width="1" fill-rule="evenodd" transform="translate(288.000000, 47.000000)">
                    <rect id="Rectangle" stroke="#CBD5DF" stroke-width="2" fill="#E5ECF3" fill-rule="nonzero" x="1" y="1" width="126" height="116" rx="8"></rect>
                    <path d="M32,18.5 L112,18.5" id="Line-3" stroke="#738394" stroke-width="2" stroke-linecap="round" stroke-linejoin="round" fill-rule="nonzero"></path>
                    <path d="M32,65 L112,65" id="Line-3-Copy-5" stroke="#738394" stroke-width="2" stroke-linecap="round" stroke-linejoin="round" fill-rule="nonzero"></path>
                    <path d="M32,28.5 L112,28.5" id="Line-3-Copy" stroke="#738394" stroke-width="2" stroke-linecap="round" stroke-linejoin="round" fill-rule="nonzero"></path>
                    <path d="M32,75 L112,75" id="Line-3-Copy-6" stroke="#738394" stroke-width="2" stroke-linecap="round" stroke-linejoin="round" fill-rule="nonzero"></path>
                    <path d="M15,37.5 L112,37.5" id="Line-3-Copy-2" stroke="#738394" stroke-width="2" stroke-linecap="round" stroke-linejoin="round" fill-rule="nonzero"></path>
                    <path d="M15,84 L112,84" id="Line-3-Copy-7" stroke="#738394" stroke-width="2" stroke-linecap="round" stroke-linejoin="round" fill-rule="nonzero"></path>
                    <path d="M15,46.5 L112,46.5" id="Line-3-Copy-3" stroke="#738394" stroke-width="2" stroke-linecap="round" stroke-linejoin="round" fill-rule="nonzero"></path>
                    <path d="M15,93 L112,93" id="Line-3-Copy-8" stroke="#738394" stroke-width="2" stroke-linecap="round" stroke-linejoin="round" fill-rule="nonzero"></path>
                    <path d="M15,55.5 L112,55.5" id="Line-3-Copy-4" stroke="#738394" stroke-width="2" stroke-linecap="round" stroke-linejoin="round" fill-rule="nonzero"></path>
                    <path d="M15,102 L112,102" id="Line-3-Copy-9" stroke="#738394" stroke-width="2" stroke-linecap="round" stroke-linejoin="round" fill-rule="nonzero"></path>
                    <circle id="Oval" stroke="#738394" fill="#FFCA04" fill-rule="nonzero" cx="20.5" cy="22.5" r="5.5"></circle>
                    <circle id="Oval-Copy-3" stroke="#738394" fill="#85843D" fill-rule="nonzero" cx="20.5" cy="69" r="5.5"></circle>
                </g>
                <ellipse id="Oval" fill="#253F5A" fill-rule="evenodd" opacity="0.5" cx="242.446659" cy="368.547359" rx="225.311881" ry="20.2722772"></ellipse>
                <ellipse id="Oval" fill="#253F5A" fill-rule="evenodd" opacity="0.5" cx="353.781694" cy="366.272277" rx="102.811881" ry="11.2722772"></ellipse>
                <path d="M444.011015,342.09122 C444.011015,373.098224 400.790931,363.507474 347.872306,363.507474 C294.953681,363.507474 252.375696,373.098224 252.375696,342.09122 C252.375696,311.084216 295.589866,304.340446 348.508491,304.340446 C401.427116,304.340446 444.011015,311.08421 444.011015,342.09122 Z" id="Path" fill="#253F5A" fill-rule="evenodd"></path>
                <path d="M252.132218,338.998185 C254.761752,366.515913 296.28752,357.534811 347.496611,357.534811 C396.373541,357.534811 436.97682,365.716507 442.893914,342.535009 L443.635319,341.910636 C443.635319,372.917641 400.415236,363.32689 347.496611,363.32689 C294.577985,363.32689 252,372.917641 252,341.910636 C252,340.980426 252.038893,340.072053 252.115773,339.185044 Z" id="Combined-Shape" fill="#000000" fill-rule="evenodd" opacity="0.1"></path>
                <path d="M263.339325,244.952521 L261.381023,247.226491 C261.381023,247.226491 237.568824,249.462372 238.535227,253.327931 C239.50163,257.193489 267.204901,248.173832 267.204901,248.173832 L263.339325,244.952521 Z" id="Path" fill="#C7AD8D" fill-rule="evenodd"></path>
                <path d="M306.5049,243.019733 C306.5049,243.019733 281.056543,252.039408 267.204901,248.173832 L273.647524,261.059082 C273.647524,261.059082 306.5049,260.092685 312.303281,254.294328 C318.101662,248.49597 306.5049,243.019733 306.5049,243.019733 Z" id="Path" fill="#966274" fill-rule="evenodd"></path>
                <path d="M306.5049,243.019733 C306.5049,243.019733 281.056543,252.039408 267.204901,248.173832 L273.647524,261.059082 C273.647524,261.059082 306.5049,260.092685 312.303281,254.294328 C318.101662,248.49597 306.5049,243.019733 306.5049,243.019733 Z" id="Path" fill="#000000" fill-rule="evenodd" opacity="0.1"></path>
                <circle id="Oval" fill="#FFC1C7" fill-rule="evenodd" cx="289.270887" cy="156.84965" r="17.0729528"></circle>
                <path d="M303.828757,172.878053 C304.416509,174.000027 305.161315,175.032416 306.040665,175.944021 C308.379233,178.488269 311.169714,180.576368 314.270335,182.102229 C304.580041,184.071583 294.792365,185.527009 284.948322,186.462408 C285.987763,182.802364 284.619563,178.887602 282.780926,175.556554 C280.942288,172.225506 278.598465,169.120812 277.447724,165.494212 L288.987521,165.804401 C291.081294,165.860677 293.181873,165.923411 295.275269,165.820903 C296.839901,165.744291 299.446539,164.806959 300.906954,165.152196 C303.994468,165.88205 302.48094,170.139639 303.828757,172.878053 Z" id="Path" fill="#FFC1C7" fill-rule="evenodd"></path>
                <path d="M342.583593,253.005804 L352.247527,264.602526 C352.247527,264.602526 368.354089,302.291869 333.24181,306.157445 C298.12953,310.02302 272.036909,303.258266 272.036909,303.258266 C272.036909,303.258266 257.863111,296.493511 257.541008,301.647604 C257.218905,306.801698 255.930353,321.29761 248.199201,335.471378 L241.434446,350.933675 C241.434446,350.933675 237.891003,354.477118 238.8574,359.309085 C239.823797,364.141052 217.274613,365.751708 217.596745,359.309085 C217.596745,359.309085 220.818056,353.832854 220.818056,350.611543 C220.818056,347.390231 225.972155,339.659086 225.972155,339.659086 L235.313956,293.272194 C235.313956,293.272194 234.669692,269.434493 256.574611,273.944327 C278.479531,278.454162 309.726258,272.977936 309.726258,272.977936 L316.813139,248.173832 L342.583593,253.005804 Z" id="Path" fill="#17304A" fill-rule="evenodd"></path>
                <path d="M342.583593,253.005804 L352.247527,264.602526 C352.247527,264.602526 368.354089,302.291869 333.24181,306.157445 C298.12953,310.02302 272.036909,303.258266 272.036909,303.258266 C272.036909,303.258266 257.863111,296.493511 257.541008,301.647604 C257.218905,306.801698 255.930353,321.29761 248.199201,335.471378 L241.434446,350.933675 C241.434446,350.933675 237.891003,354.477118 238.8574,359.309085 C239.823797,364.141052 217.274613,365.751708 217.596745,359.309085 C217.596745,359.309085 220.818056,353.832854 220.818056,350.611543 C220.818056,347.390231 225.972155,339.659086 225.972155,339.659086 L235.313956,293.272194 C235.313956,293.272194 234.669692,269.434493 256.574611,273.944327 C278.479531,278.454162 309.726258,272.977936 309.726258,272.977936 L316.813139,248.173832 L342.583593,253.005804 Z" id="Path" fill="#000000" fill-rule="evenodd" opacity="0.1"></path>
                <path d="M306.34384,252.157352 C306.34384,252.157352 335.818839,241.086951 352.247527,264.602526 C352.247527,264.602526 356.435235,301.003346 339.684415,302.614001 C322.933594,304.224657 301.028657,303.902525 295.874575,298.426293 C290.720494,292.950062 258.185226,277.487771 258.185226,277.487771 C258.185226,277.487771 241.989733,269.226893 238.812893,279.961017 C235.636054,290.695142 235.313898,293.272194 235.313898,293.272194 C235.313898,293.272194 218.563078,305.513174 211.798323,307.7681 C211.798323,307.7681 207.288489,314.210723 204.711436,314.210723 C202.134384,314.210723 186.349966,317.754166 187.960616,305.835312 L214.053243,281.997605 L240.145865,256.549242 C240.145865,256.549242 247.554884,245.596785 266.560642,251.395143 C279.174026,255.148996 291.968017,258.266861 304.89425,260.73695 L306.34384,252.157352 Z" id="Path" fill="#17304A" fill-rule="evenodd"></path>
                <path d="M237.890962,358.664821 C237.890962,358.664821 244.011453,374.127118 238.857359,376.059906 C233.703266,377.992694 222.750798,376.70417 222.750798,376.70417 C222.750798,376.70417 209.865553,375.093515 206.644242,375.415641 C203.42293,375.737768 190.215553,373.160727 192.148341,368.006628 C194.081129,362.852529 204.067195,364.141052 204.067195,364.141052 L213.086864,359.95335 C213.086864,359.95335 214.053261,356.732039 216.308175,358.020533 C218.56309,359.309027 225.005718,364.141052 237.890962,358.664821 Z" id="Path" fill="#CBD5DF" fill-rule="evenodd"></path>
                <path d="M204.389321,312.922199 C204.389321,312.922199 211.154076,328.062364 200.201619,326.773835 C189.249162,325.485306 180.873746,323.230398 177.652435,322.908265 C174.553818,322.598389 165.792041,319.605992 167.136081,313.644333 C167.208398,313.258733 167.237698,312.866298 167.223443,312.474234 C167.223443,311.673937 168.310616,310.103536 177.008176,310.345147 C177.008176,310.345147 183.450799,310.345147 186.027845,305.835312 C186.027845,305.835312 195.691785,318.076298 204.389321,312.922199 Z" id="Path" fill="#CBD5DF" fill-rule="evenodd"></path>
                <path d="M277.513099,184.069735 C277.513099,184.069735 300.706542,169.573828 320.034409,184.069735 C339.362276,198.565641 352.247527,264.602526 352.247527,264.602526 L307.471279,254.61646 C307.471279,254.61646 305.538463,246.885308 302.961445,245.596785 C300.384427,244.308262 300.06226,238.83203 300.06226,238.83203 C300.06226,238.83203 286.210624,234.644322 287.177015,218.537743 C288.143407,202.431164 277.513099,184.069735 277.513099,184.069735 Z" id="Path" fill="#966274" fill-rule="evenodd"></path>
                <path d="M289.431953,184.713993 L277.513099,184.713993 C277.513099,184.713993 270.426212,192.7673 269.459792,213.061535 L265.594246,229.168085 C265.594246,229.168085 257.540939,248.495952 262.372934,251.717264 C267.20493,254.938575 276.546702,254.616448 278.47949,248.17382 C280.412278,241.731192 293.619655,204.363987 293.619655,204.363987 L289.431953,184.713993 Z" id="Path" fill="#966274" fill-rule="evenodd"></path>
                <path d="M303.867969,137.557508 C310.054489,143.078518 311.302682,152.085091 312.866613,160.2281 C314.430544,168.371109 317.576732,177.43931 325.251341,180.57857 C321.792044,181.040681 318.280688,180.938512 314.854113,180.276044 L326.451848,190.669409 L306.914863,184.301366 C300.783235,182.302774 294.343567,180.279085 287.993982,181.407793 C277.475103,183.277645 270.15194,193.166218 260.048735,196.64018 L261.171449,191.161655 L254.393141,191.1097 C256.016977,189.908235 257.345234,188.352062 258.276764,186.559686 C257.63123,185.775724 256.695926,185.286353 255.683819,185.203001 C252.858297,167.578596 263.323976,150.156705 276.962858,138.642214 C279.645552,136.377366 282.614068,134.202006 286.078947,133.635477 C287.171387,133.456856 288.321476,133.488566 289.42203,133.719088 C291.920792,132.059406 298.946384,133.291347 303.867969,137.557508 Z" id="Path" fill="#2F2E41" fill-rule="evenodd"></path>
                <g id="Path" stroke-width="1" fill-rule="evenodd" transform="translate(0.000000, 39.386139)">
                    <mask id="mask-2" fill="white">
                        <use xlink:href="#path-1"></use>
                    </mask>
                    <use id="Mask" fill="#85843D" xlink:href="#path-1"></use>
                    <path d="M76.3852745,-0.28249958 C71.3617999,7.96961032 79.5250297,7.63419122 82.0952573,13.232956 L82.0952573,13.232956 C83.1006207,15.4215156 82.1614348,19.2098175 83.5411356,21.8611621 L83.5411356,21.8611621 C85.2931685,25.2293566 87.1107104,27.2458722 88.8039188,30.7374316 L88.8039188,30.7374316 C90.7016759,34.6477647 92.8621377,42.3150584 91.6147919,47.3763525 L91.6147919,47.3763525 C89.390158,56.4053277 79.6299779,61.191218 75.5864652,70.4102418 L75.5864652,70.4102418 C73.4153081,75.3595072 73.7314895,75.8863086 76.2295234,79.1818178 L76.2295234,79.1818178 C79.9220948,84.0550638 80.6574005,82.2926132 81.8947194,80.5294957 L81.8947194,80.5294957 C82.8733444,79.1338056 84.1668139,77.7381154 87.4903955,79.6339334 L87.4903955,79.6339334 C92.5018379,82.4933312 83.5464833,83.4088986 82.3847003,83.7329815 L82.3847003,83.7329815 C83.2904632,83.4802502 81.4421722,85.6634751 81.3378924,85.7101537 L81.3378924,85.7101537 C81.2857526,85.733493 80.8418953,85.5474454 80.3378767,85.3620647 L80.3378767,85.3620647 C79.7215569,85.1340064 79.014995,84.9066149 78.8311686,85.0626548 L78.8311686,85.0626548 C74.0115741,89.1530339 78.8746184,92.707276 75.1385972,95.6626983 L75.1385972,95.6626983 C94.8033447,106.588825 115.469445,116.454014 134.555975,128.353723 L134.555975,128.353723 C142.330161,133.200963 137.77394,135.986342 141.631621,141.342378 L141.631621,141.342378 C146.943201,148.71693 160.428039,155.536674 168.128695,160.440594 L168.128695,160.440594 C175.005808,156.228184 178.999855,144.117754 182.542691,136.175723 L182.542691,136.175723 C185.163722,130.298887 185.05142,125.990453 190.528779,122.432876 L190.528779,122.432876 C194.033513,120.156961 200.547653,119.500793 198.142535,113.067815 L198.142535,113.067815 C203.174031,110.858584 212.372705,111.177999 206.994279,101.834943 L206.994279,101.834943 C203.595161,95.9294332 200.471449,94.5517476 199.726785,87.6326452 L199.726785,87.6326452 C199.071694,81.5364199 199.683335,75.0147524 199.661276,68.9018561 L199.661276,68.9018561 C199.617826,56.7340784 197.513515,42.8978741 199.510204,30.9408169 L199.510204,30.9408169 C200.893915,22.6553652 210.777092,14.0178234 216.044554,6.64060385 L216.044554,6.64060385 C215.167535,6.63060129 214.290516,6.62126557 213.413497,6.61126302 L213.413497,6.61126302 C207.738943,6.8226504 205.305749,7.3341145 200.514899,5.2275759 L200.514899,5.2275759 C194.900506,2.75827789 197.263511,1.39392905 190.660466,3.52780797 L190.660466,3.52780797 C187.635686,4.50539125 183.364897,6.15114537 180.83745,8.02429096 L180.83745,8.02429096 C173.852715,13.2016147 174.943641,16.4837872 165.003646,14.9280561 L165.003646,14.9280561 C158.290973,13.8777876 151.111048,13.6664002 145.142371,10.7423192 L145.142371,10.7423192 C138.835454,7.65219583 133.124134,0.982490519 126.432852,-1.0687006 L126.432852,-1.0687006 C124.182817,-1.75754339 121.613258,-1.59883614 119.050383,-1.44079573 L119.050383,-1.44079573 C115.700732,-1.23340937 112.361107,-1.02735669 109.75612,-2.70912002 L109.75612,-2.70912002 C104.449218,-6.1359962 108.37174,-12.222219 106.352323,-15.8498132 L106.352323,-15.8498132 C103.871,-20.3076196 97.742562,-16.3712798 96.9678172,-20.2722772 L96.9678172,-20.2722772 C90.6702583,-14.1533794 80.9067359,-7.70839823 76.3852745,-0.28249958 L76.3852745,-0.28249958 Z" fill="#000000" opacity="0.1" mask="url(#mask-2)"></path>
                </g>
                <g id="Path" stroke-width="1" fill-rule="evenodd" transform="translate(114.103960, 0.000000)">
                    <mask id="mask-4" fill="white">
                        <use xlink:href="#path-3"></use>
                    </mask>
                    <use id="Mask" fill="#966274" xlink:href="#path-3"></use>
                    <path d="M-37.7186859,39.103639 C-42.7421605,47.3557489 -34.5789307,47.0203298 -32.0087031,52.6190947 L-32.0087031,52.6190947 C-31.0033397,54.8076542 -31.9425256,58.5959562 -30.5628248,61.2473007 L-30.5628248,61.2473007 C-28.8107919,64.6154952 -26.99325,66.6320108 -25.3000416,70.1235702 L-25.3000416,70.1235702 C-23.4022845,74.0339033 -21.2418227,81.701197 -22.4891685,86.7624911 L-22.4891685,86.7624911 C-24.7138024,95.7914663 -34.4739825,100.577357 -38.5174952,109.79638 L-38.5174952,109.79638 C-40.6886523,114.745646 -40.3724709,115.272447 -37.874437,118.567956 L-37.874437,118.567956 C-34.1818656,123.441202 -33.4465599,121.678752 -32.209241,119.915634 L-32.209241,119.915634 C-31.230616,118.519944 -29.9371465,117.124254 -26.6135649,119.020072 L-26.6135649,119.020072 C-21.6021225,121.87947 -30.5574771,122.795037 -31.7192601,123.11912 L-31.7192601,123.11912 C-30.8134972,122.866389 -32.6617882,125.049614 -32.766068,125.096292 L-32.766068,125.096292 C-32.8182078,125.119632 -33.2620651,124.933584 -33.7660837,124.748203 L-33.7660837,124.748203 C-34.3824035,124.520145 -35.0889654,124.292753 -35.2727918,124.448793 L-35.2727918,124.448793 C-40.0923863,128.539173 -35.229342,132.093415 -38.9653632,135.048837 L-38.9653632,135.048837 C-19.3006157,145.974964 1.36548437,155.840153 20.4520142,167.739862 L20.4520142,167.739862 C28.2262005,172.587101 23.6699792,175.37248 27.5276601,180.728516 L27.5276601,180.728516 C32.8392409,188.103069 46.3240785,194.922812 54.0247342,199.826733 L54.0247342,199.826733 C60.9018476,195.614322 64.8958944,183.503893 68.4387308,175.561862 L68.4387308,175.561862 C71.0597613,169.685026 70.94746,165.376591 76.4248188,161.819015 L76.4248188,161.819015 C79.929553,159.5431 86.4436928,158.886932 84.0385748,152.453954 L84.0385748,152.453954 C89.070071,150.244722 98.2687449,150.564137 92.8903182,141.221082 L92.8903182,141.221082 C89.4912006,135.315572 86.3674884,133.937886 85.6228243,127.018784 L85.6228243,127.018784 C84.9677338,120.922558 85.5793744,114.400891 85.5573152,108.287995 L85.5573152,108.287995 C85.5138654,96.120217 83.4095542,82.2840127 85.4062434,70.3269555 L85.4062434,70.3269555 C86.7899549,62.0415038 96.6731316,53.403962 101.940594,46.0267425 L101.940594,46.0267425 C101.063575,46.0167399 100.186556,46.0074042 99.3095367,45.9974016 L99.3095367,45.9974016 C93.6349823,46.208789 91.201789,46.7202531 86.4109383,44.6137145 L86.4109383,44.6137145 C80.7965453,42.1444165 83.1595503,40.7800677 76.5565054,42.9139466 L76.5565054,42.9139466 C73.5317252,43.8915299 69.2609362,45.537284 66.7334901,47.4104296 L66.7334901,47.4104296 C59.7487547,52.5877533 60.8396809,55.8699258 50.8996851,54.3141947 L50.8996851,54.3141947 C44.1870128,53.2639262 37.0070872,53.0525388 31.0384105,50.1284579 L31.0384105,50.1284579 C24.7314932,47.0383344 19.0201735,40.3686291 12.3288919,38.317438 L12.3288919,38.317438 C10.0788566,37.6285952 7.50929748,37.7873025 4.94642299,37.9453429 L4.94642299,37.9453429 C1.59677143,38.1527292 -1.74285324,38.3587819 -4.34784069,36.6770186 L-4.34784069,36.6770186 C-9.65474226,33.2501424 -5.73222073,27.1639196 -7.75163749,23.5363255 L-7.75163749,23.5363255 C-10.2329599,19.078519 -16.3613984,23.0148588 -17.1361432,19.1138614 L-17.1361432,19.1138614 C-23.4337021,25.2327592 -33.1972245,31.6777404 -37.7186859,39.103639 L-37.7186859,39.103639 Z" fill="#000000" opacity="0.1" mask="url(#mask-4)"></path>
                </g>
                <path d="M105.539792,70.3668119 C101.187045,77.5345099 108.260332,77.2431683 110.487386,82.106198 L110.487386,82.106198 C111.358515,84.0071584 110.544728,87.2976386 111.740213,89.6005693 L111.740213,89.6005693 C113.258317,92.5261485 114.833183,94.2776733 116.300317,97.3104059 L116.300317,97.3104059 C117.944688,100.706881 119.816688,107.366614 118.735886,111.762802 L118.735886,111.762802 C116.808282,119.605277 108.351267,123.762252 104.847639,131.769802 L104.847639,131.769802 C102.966371,136.068683 103.240337,136.526257 105.404837,139.388703 L105.404837,139.388703 C108.604381,143.621554 109.24151,142.090708 110.313624,140.559282 L110.313624,140.559282 C111.161584,139.347 112.282351,138.134718 115.162173,139.781406 L115.162173,139.781406 C119.504495,142.26505 111.744847,143.060302 110.738183,143.341797 L110.738183,143.341797 C111.52301,143.122277 109.9215,145.018604 109.831144,145.059149 L109.831144,145.059149 C109.785965,145.079421 109.401371,144.917822 108.964649,144.756802 L108.964649,144.756802 C108.430619,144.558713 107.818396,144.361203 107.659114,144.496738 L107.659114,144.496738 C103.483025,148.049599 107.696762,151.136777 104.459569,153.703827 L104.459569,153.703827 C121.498708,163.194149 139.4055,171.76295 155.943624,182.098916 L155.943624,182.098916 C162.679812,186.309178 158.731931,188.72853 162.07454,193.380728 L162.07454,193.380728 C166.676926,199.786188 178.361287,205.709748 185.033762,209.969243 L185.033762,209.969243 C190.992653,206.310386 194.453421,195.791391 197.523223,188.893025 L197.523223,188.893025 C199.794297,183.788465 199.69699,180.046203 204.44302,176.956129 L204.44302,176.956129 C207.479807,174.979292 213.124188,174.409351 211.040198,168.821733 L211.040198,168.821733 C215.399896,166.902817 223.370376,167.180257 218.710069,159.064975 L218.710069,159.064975 C215.764797,153.93551 213.058158,152.738866 212.412921,146.729005 L212.412921,146.729005 C211.845297,141.433886 212.375272,135.769233 212.356158,130.459634 L212.356158,130.459634 C212.31851,119.890827 210.495163,107.872842 212.225257,97.4870644 L212.225257,97.4870644 C213.424218,90.2904059 221.987807,82.7879257 226.551965,76.3801485 L226.551965,76.3801485 C225.792045,76.3714604 225.032124,76.3633515 224.272203,76.3546634 L224.272203,76.3546634 C219.355307,76.5382723 217.24699,76.9825248 213.095807,75.1528069 L213.095807,75.1528069 C208.23104,73.008 210.27854,71.8229406 204.557124,73.6764059 L204.557124,73.6764059 C201.936208,74.5255248 198.235649,75.9550099 196.045663,77.582005 L196.045663,77.582005 C189.99352,82.0789752 190.938787,84.9298366 182.325965,83.5785446 L182.325965,83.5785446 C176.509559,82.6662921 170.288287,82.4826832 165.11654,79.9428564 L165.11654,79.9428564 C159.651713,77.2588069 154.70296,71.4655693 148.905089,69.6839257 L148.905089,69.6839257 C146.955475,69.085604 144.729,69.2234554 142.508317,69.3607277 L142.508317,69.3607277 C139.605906,69.5408614 136.712183,69.7198366 134.45501,68.2590743 L134.45501,68.2590743 C129.856678,65.2825248 133.25547,59.9960941 131.505683,56.845203 L131.505683,56.845203 C129.355663,52.973198 124.045485,56.3922624 123.374183,53.003896 L123.374183,53.003896 C117.917465,58.3187079 109.457554,63.9167525 105.539792,70.3668119 L105.539792,70.3668119 Z" id="Path" fill="#FFCA04" fill-rule="evenodd"></path>
                <rect id="Rectangle-Copy" fill="#17304A" fill-rule="evenodd" x="93.2524752" y="286.707921" width="1.15841584" height="78.297709"></rect>
                <circle id="Oval-Copy" fill="#17304A" fill-rule="evenodd" cx="93.8990972" cy="286.775335" r="11.0723645"></circle>
                <path d="M93.6664004,335.049219 C93.6664004,335.049219 92.0846299,301.028787 59.6584158,304.983202" id="Path-Copy" fill="#17304A" fill-rule="evenodd"></path>
                <path d="M73.7044859,354.227063 C73.7044859,364.315029 67.7081664,367.837128 60.310158,367.837128 C60.1387993,367.837128 59.9674464,367.834655 59.7973215,367.830954 C59.4545984,367.823557 59.1143485,367.807542 58.7790276,367.784119 C52.1022141,367.311955 46.9158416,363.608609 46.9158416,354.227063 C46.9158416,344.52003 59.3202279,332.269742 60.2546814,331.361174 L60.2559151,331.35994 C60.2916697,331.324191 60.310158,331.306931 60.310158,331.306931 C60.310158,331.306931 73.7044859,344.140331 73.7044859,354.227063 Z" id="Path-Copy-2" fill="#FFCA04" fill-rule="evenodd"></path>
                <circle id="Oval-Copy-2" fill="#FFCA04" fill-rule="evenodd" cx="80.509901" cy="268.173267" r="5.79207921"></circle>
            </g>
        </g>
    </g>
</svg>