<?xml version="1.0" encoding="UTF-8"?>
<svg width="467px" height="326px" viewBox="0 0 467 326" version="1.1" xmlns="http://www.w3.org/2000/svg" xmlns:xlink="http://www.w3.org/1999/xlink">
    <!-- Generator: Sketch 57 (83077) - https://sketch.com -->
    <title>Illustrations/Sort</title>
    <desc>Created with Sketch.</desc>
    <defs>
        <rect id="path-1" x="0" y="0" width="321" height="193" rx="4"></rect>
    </defs>
    <g id="Home" stroke="none" stroke-width="1" fill="none" fill-rule="evenodd">
        <g id="Home-Large" transform="translate(-414.000000, -1904.000000)">
            <g id="Illustrations/Sort" transform="translate(414.000000, 1904.000000)">
                <path d="M177.690584,263.458309 L177.691288,34.1572851 C204.454469,35.0227596 233.161093,39.4697273 262.329526,47.8450922 C283.554471,53.9395898 303.471271,61.6683471 321.66653,70.6150791 L321.665291,282.513581 C285.023826,286.43207 242.365314,282.701173 198.670474,270.154726 C191.523598,268.102583 184.525041,265.865146 177.690584,263.458309 L177.691288,34.1572851 Z M429.439954,216.123171 C419.49795,250.842549 382.131042,273.663621 331.664375,281.232353 L331.66223,75.7439746 C401.643643,113.196601 442.989819,168.804427 429.439954,216.123171 Z M167.694536,33.999993 L167.693442,259.772926 C75.1338809,224.099343 15.6888923,157.301777 31.560046,101.876647 C43.8856008,58.833454 98.362381,34.0775877 167.694536,33.999993 Z" id="Combined-Shape" fill="#0050A6" fill-rule="nonzero" opacity="0.05"></path>
                <ellipse id="Oval" fill="#253F5A" fill-rule="evenodd" opacity="0.5" transform="translate(76.000000, 319.000000) scale(-1, 1) translate(-76.000000, -319.000000) " cx="76" cy="319" rx="76" ry="7"></ellipse>
                <polygon id="Rectangle" fill="#774757" fill-rule="evenodd" transform="translate(69.669879, 69.153076) scale(-1, 1) rotate(-2.220710) translate(-69.669879, -69.153076) " points="64.2652027 62.204207 75.0745545 62.204207 75.0745545 76.1019457 64.2652027 76.1019457"></polygon>
                <path d="M131.547671,110.556002 C131.547671,110.556002 112.702004,103.265858 113.003581,109.561852 C113.305158,115.857846 132,120 132,120 L131.547671,110.556002 Z" id="Path" fill="#C7AD8D" fill-rule="evenodd" transform="translate(122.500000, 113.500000) scale(-1, 1) translate(-122.500000, -113.500000) "></path>
                <path d="M56.6680549,162.27968 C56.6680549,162.27968 49.5806997,179.593282 46.9620905,192.086846 C44.3434814,204.580409 40.3554832,221.774054 45.4852668,233.967731 C50.6150503,246.161408 65.1995036,281.999059 65.3497376,285.865811 C65.4999717,289.732564 64.100532,293.659292 67.1998842,293.53934 C70.2992364,293.419387 87.1654108,288.119519 87.8501101,285.76948 C88.5348095,283.419442 82.0957189,277.472573 82.0957189,277.472573 L66.1955843,227.744544 L82.7849573,195.347425 L94.7508112,243.678664 L97.0944639,304 C97.0944639,304 108.596857,300.45676 110.266719,303.490183 C110.266719,303.490183 115.42017,296.320105 116.074799,293.196717 C116.729428,290.07333 113.641004,230.555326 113.641004,230.555326 C113.641004,230.555326 124.199194,162.76402 115.675964,163.093899 C107.152735,163.423778 73.7682216,143.029511 56.6680549,162.27968 Z" id="Path" fill="#17304A" fill-rule="evenodd" transform="translate(81.000000, 229.000000) scale(-1, 1) translate(-81.000000, -229.000000) "></path>
                <path d="M83.0193875,290.317273 C83.0193875,290.317273 75.1671378,307.619931 74.4232842,308.421376 C73.6794306,309.222822 68.5625132,317.147501 72.4318055,316.997909 C76.3010978,316.848318 85.4373564,312.631668 92.1620122,306.190201 C98.886668,299.748734 107.752846,288.588361 106.949002,287.846755 C106.145157,287.105149 100.638099,285 100.638099,285 L83.0193875,290.317273 Z" id="Path" fill="#09213B" fill-rule="evenodd" transform="translate(89.000000, 301.000000) scale(-1, 1) translate(-89.000000, -301.000000) "></path>
                <path d="M51.6400841,300.404766 C51.6400841,300.404766 51.1804287,308.18134 49.7952766,311.340034 C48.4101245,314.498728 48.5848127,319.146647 52.3388414,318.996449 C56.0928701,318.846251 65.7951161,316.906431 65.7951161,316.906431 C65.7951161,316.906431 66.3712318,312.228468 65.591314,311.483855 C64.8113963,310.739242 61.4879043,302.338208 62.9021703,299.954166 C64.3164363,297.570124 51.6400841,300.404766 51.6400841,300.404766 Z" id="Path" fill="#09213B" fill-rule="evenodd" transform="translate(57.500000, 309.000000) scale(-1, 1) translate(-57.500000, -309.000000) "></path>
                <path d="M57.0445052,49 C57.0445052,49 65.1575608,61.605652 68.3201375,64.5232181 C71.4827142,67.4407842 62.5852878,73.8644274 62.5852878,73.8644274 L46.6605994,76 C46.6605994,76 46.8609375,61.5530309 46.0407767,60.0648185 C45.2206159,58.5766061 57.0445052,49 57.0445052,49 Z" id="Path" fill="#C7AD8D" fill-rule="evenodd" transform="translate(57.500000, 62.500000) scale(-1, 1) translate(-57.500000, -62.500000) "></path>
                <path d="M57.3034025,65.5419262 C57.3034025,65.5419262 60.657112,71.6134161 63.7694437,71.4933718 C66.8817755,71.3733275 82.9801222,64.5515266 83.6677074,62.199689 C84.3552927,59.8478513 89,79.0463539 89,79.0463539 L49.608525,148 L40,141.394663 L44.6556859,100.909558 L48.4793491,79.0590925 L57.3034025,65.5419262 Z" id="Path" fill="#966274" fill-rule="evenodd" transform="translate(64.500000, 105.000000) scale(-1, 1) translate(-64.500000, -105.000000) "></path>
                <path d="M93.0338286,126.946018 C91.4836383,130.21724 90.5154464,133.628521 90.6496979,137.120785 C90.6556501,137.275658 90.6616023,137.430511 90.6752378,137.585066 C91.0429946,144.75182 93.6602534,153.040362 94.5992306,159.068051 C95.28056,163.391946 95.0866654,166.548062 92.5782293,167.289863 C86.4967885,169.078751 93.4649178,170.357178 69.9365548,178.25705 C46.4081917,186.156922 42.30217,179.338037 42.2426381,177.789364 C42.1831061,176.240691 45.5747058,164.475513 44.77732,163.731225 C43.9799342,162.986936 33.6201956,173.473688 30.4901748,172.045105 C27.3601541,170.616523 30.1329735,162.753072 30.1329735,162.753072 C30.1329735,162.753072 37.1840859,146.191762 37.0352512,142.320058 C36.8864165,138.448353 47.7161007,120.188239 47.7161007,120.188239 L55.0820235,71.8190562 C55.0820235,71.8190562 57.9143749,65.5042584 61.7227175,64.5797877 C65.5310601,63.6553171 68.6908372,65.8581994 68.6908372,65.8581994 L62.3180176,80.0665092 L55.5943406,105.145523 L56.7191666,114.407545 C56.7191666,114.407545 64.5378988,97.8161852 69.6731191,91.4113083 C74.8083395,85.0064315 85.7570876,69.8436345 85.7570876,69.8436345 C85.7570876,69.8436345 88.3132382,61.1433234 86.3835946,58.5433188 C84.453661,55.9356126 94.4327423,55.5452556 98.6875891,66.235826 C100.942676,71.9018091 104.603944,80.3511497 106.897515,88.218069 C108.9413,95.1873932 109.906716,101.702606 107.881919,105.426686 C104.787235,111.115832 97.0025332,118.593726 93.0338286,126.946018 Z" id="Path" fill="#09213B" fill-rule="evenodd" transform="translate(69.000000, 119.500000) scale(-1, 1) translate(-69.000000, -119.500000) "></path>
                <path d="M46.8852398,106.296703 C43.7997108,112.03448 36.0381394,119.576306 32.0812193,128 C31.0477199,124.200607 29.7868997,120.269481 29.7868997,120.269481 C29.7868997,120.269481 24.951121,93.8684085 39.2551879,87.0453665 C41.6252857,86.8115266 43.9957202,87.4873737 45.9037486,88.9409727 C47.9414746,95.9698763 48.9040244,102.540786 46.8852398,106.296703 Z" id="Path" fill="#000000" fill-rule="evenodd" opacity="0.1" transform="translate(38.500000, 107.500000) scale(-1, 1) translate(-38.500000, -107.500000) "></path>
                <path d="M116.810051,104 L104.638415,107.568059 L87.738566,108.226863 L86,122.989091 L113.773425,125 C113.773425,125 120.710477,105.394726 116.810051,104 Z" id="Path" fill="#09213B" fill-rule="evenodd" transform="translate(102.000000, 114.500000) scale(-1, 1) translate(-102.000000, -114.500000) "></path>
                <path d="M74.3337306,154 C74.3337306,154 57.7830671,156.78049 61.5605817,161.82375 C65.3380963,166.867011 80,161.564886 80,161.564886 L74.3337306,154 Z" id="Path" fill="#C7AD8D" fill-rule="evenodd" transform="translate(70.500000, 159.000000) scale(-1, 1) translate(-70.500000, -159.000000) "></path>
                <path d="M67.0560845,138 C67.4257084,145.078466 70.0562555,153.264901 71,159.218335 C65.7901868,164.106194 60.8359714,168.417434 58.9689082,168.489205 C55.111313,168.637492 48.9092445,168.109954 46.6246054,168.963728 C44.3399663,169.817502 43,155.316013 43,155.316013 C43,155.316013 44.3635316,150.667915 50.4459317,148.136264 C54.5514171,146.423552 62.4210189,141.778132 67.0560845,138 Z" id="Path" fill="#000000" fill-rule="evenodd" opacity="0.1" transform="translate(57.000000, 153.500000) scale(-1, 1) translate(-57.000000, -153.500000) "></path>
                <path d="M58.6316426,82.0517907 C58.6316426,82.0517907 71.6772071,80.0097243 70.9724393,101.570966 C70.2676714,123.132208 72.3475706,136.895148 67.1007199,140.943191 C61.8538693,144.991233 44.8106707,163.338229 40.956156,163.487121 C37.1016413,163.636013 30.9045207,163.106322 28.621706,163.96358 C26.3388914,164.820837 25,150.260185 25,150.260185 C25,150.260185 26.3624427,145.593124 32.4399808,143.051144 C38.5175189,140.509164 52.8358417,131.496285 52.7162688,128.4246 C52.596696,125.352914 49.094558,114.721205 49.094558,114.721205 C49.094558,114.721205 44.2236401,88.7609183 58.6316426,82.0517907 Z" id="Path" fill="#09213B" fill-rule="evenodd" transform="translate(48.000000, 123.000000) scale(-1, 1) translate(-48.000000, -123.000000) "></path>
                <circle id="Oval" fill="#C7AD8D" fill-rule="evenodd" transform="translate(70.000000, 51.000000) scale(-1, 1) translate(-70.000000, -51.000000) " cx="70" cy="51" r="17"></circle>
                <path d="M59.0687488,26.3806189 C58.6578056,26.7284824 58.1656905,26.9711151 57.6362164,27.0869156 C57.0828922,27.1838298 56.5537201,26.823693 56.4515677,26.2806834 C56.0617624,27.0749236 55.6219641,27.9214135 54.8261068,28.3289525 C54.0302495,28.7364914 52.7996147,28.3947604 52.6848978,27.5202394 C52.5686976,28.1842444 52.2697042,28.8043276 51.8203343,29.3132603 C51.3265458,29.7758219 50.4310973,29.8925675 50,29.3730435 C50.3485279,31.2443864 50.1334106,33.1688698 50.242863,35.0682437 C50.3523154,36.9676176 50.8678246,38.9812275 52.3284099,40.230199 C54.4585099,42.0516771 57.6616565,41.6021324 60.4636304,41.2570442 C60.8873542,41.1696787 61.3270106,41.1933082 61.7385064,41.3255629 C62.7876533,41.7647294 62.7400585,43.1996116 62.7542044,44.3199557 C62.9309163,48.3791485 66.065742,51.7193098 70.1694199,52.2208785 C71.2815766,52.3895377 72.4163877,52.1174274 73.324421,51.4643578 C74.1199712,50.8018485 74.52634,49.7220351 75.4379378,49.2243545 C76.9207996,48.4147937 78.7192327,49.5954478 79.8033981,50.8773736 C80.8875635,52.1592994 81.9560817,53.7361852 83.6356058,53.9708448 C85.8568787,54.2811828 87.5487012,52.0570938 88.3787386,50.0091696 C90.6922644,44.2103664 90.5237981,37.7393051 87.9115651,32.0642869 C83.2735073,22.1310238 67.4297374,20.559885 59.0687488,26.3806189 Z" id="Path" fill="#2F2E41" fill-rule="evenodd" transform="translate(70.000000, 38.500000) scale(-1, 1) translate(-70.000000, -38.500000) "></path>
                <rect id="Rectangle" stroke="#CBD5DF" stroke-width="2" fill="#FFFFFF" fill-rule="nonzero" x="128" y="58" width="319" height="191" rx="4"></rect>
                <g id="Group-7" stroke-width="1" fill-rule="evenodd" transform="translate(136.000000, 67.000000)">
                    <circle id="Oval-Copy-3" fill="#536980" cx="5" cy="5" r="5"></circle>
                    <rect id="Rectangle-Copy-10" fill="#CBD5DF" fill-rule="nonzero" x="15" y="3" width="71" height="4"></rect>
                    <rect id="Rectangle-Copy-11" fill="#CBD5DF" fill-rule="nonzero" x="93" y="3" width="23" height="5"></rect>
                    <rect id="Rectangle-Copy-12" fill="#CBD5DF" fill-rule="nonzero" x="123" y="3" width="23" height="5"></rect>
                    <rect id="Rectangle-Copy-13" fill="#CBD5DF" fill-rule="nonzero" x="192" y="3" width="23" height="5"></rect>
                    <rect id="Rectangle-Copy-14" fill="#CBD5DF" fill-rule="nonzero" x="153" y="3" width="32" height="5"></rect>
                    <rect id="Rectangle-Copy-37" fill="#CBD5DF" fill-rule="nonzero" x="222" y="3" width="32" height="5"></rect>
                    <rect id="Rectangle-Copy-49" fill="#CBD5DF" fill-rule="nonzero" x="261" y="3" width="38" height="5"></rect>
                </g>
                <g id="Group-13" stroke-width="1" fill-rule="evenodd" transform="translate(136.000000, 158.000000)">
                    <circle id="Oval-Copy-3" fill="#536980" cx="5" cy="5" r="5"></circle>
                    <rect id="Rectangle-Copy-10" fill="#CBD5DF" fill-rule="nonzero" x="15" y="3" width="71" height="4"></rect>
                    <rect id="Rectangle-Copy-11" fill="#CBD5DF" fill-rule="nonzero" x="93" y="3" width="23" height="5"></rect>
                    <rect id="Rectangle-Copy-12" fill="#CBD5DF" fill-rule="nonzero" x="123" y="3" width="23" height="5"></rect>
                    <rect id="Rectangle-Copy-13" fill="#CBD5DF" fill-rule="nonzero" x="192" y="3" width="23" height="5"></rect>
                    <rect id="Rectangle-Copy-14" fill="#CBD5DF" fill-rule="nonzero" x="153" y="3" width="32" height="5"></rect>
                    <rect id="Rectangle-Copy-38" fill="#CBD5DF" fill-rule="nonzero" x="222" y="3" width="32" height="5"></rect>
                    <rect id="Rectangle-Copy-50" fill="#CBD5DF" fill-rule="nonzero" x="261" y="3" width="38" height="5"></rect>
                </g>
                <g id="Group-9" stroke-width="1" fill-rule="evenodd" transform="translate(136.000000, 85.000000)">
                    <circle id="Oval-Copy-4" fill="#966274" cx="5" cy="5" r="5"></circle>
                    <rect id="Rectangle-Copy-15" fill="#CBD5DF" fill-rule="nonzero" x="15" y="3" width="71" height="4"></rect>
                    <rect id="Rectangle-Copy-16" fill="#CBD5DF" fill-rule="nonzero" x="93" y="3" width="23" height="5"></rect>
                    <rect id="Rectangle-Copy-17" fill="#CBD5DF" fill-rule="nonzero" x="123" y="3" width="23" height="5"></rect>
                    <rect id="Rectangle-Copy-18" fill="#CBD5DF" fill-rule="nonzero" x="192" y="3" width="23" height="5"></rect>
                    <rect id="Rectangle-Copy-19" fill="#CBD5DF" fill-rule="nonzero" x="153" y="3" width="32" height="5"></rect>
                    <rect id="Rectangle-Copy-39" fill="#CBD5DF" fill-rule="nonzero" x="222" y="3" width="32" height="5"></rect>
                    <rect id="Rectangle-Copy-51" fill="#CBD5DF" fill-rule="nonzero" x="261" y="3" width="38" height="5"></rect>
                </g>
                <g id="Group-14" stroke-width="1" fill-rule="evenodd" transform="translate(136.000000, 176.000000)">
                    <circle id="Oval-Copy-4" fill="#966274" cx="5" cy="5" r="5"></circle>
                    <rect id="Rectangle-Copy-15" fill="#CBD5DF" fill-rule="nonzero" x="15" y="3" width="71" height="4"></rect>
                    <rect id="Rectangle-Copy-16" fill="#CBD5DF" fill-rule="nonzero" x="93" y="3" width="23" height="5"></rect>
                    <rect id="Rectangle-Copy-17" fill="#CBD5DF" fill-rule="nonzero" x="123" y="3" width="23" height="5"></rect>
                    <rect id="Rectangle-Copy-18" fill="#CBD5DF" fill-rule="nonzero" x="192" y="3" width="23" height="5"></rect>
                    <rect id="Rectangle-Copy-19" fill="#CBD5DF" fill-rule="nonzero" x="153" y="3" width="32" height="5"></rect>
                    <rect id="Rectangle-Copy-40" fill="#CBD5DF" fill-rule="nonzero" x="222" y="3" width="32" height="5"></rect>
                    <rect id="Rectangle-Copy-52" fill="#CBD5DF" fill-rule="nonzero" x="261" y="3" width="38" height="5"></rect>
                </g>
                <g id="Group-10" stroke-width="1" fill-rule="evenodd" transform="translate(136.000000, 103.000000)">
                    <circle id="Oval-Copy-5" fill="#774757" cx="5" cy="5" r="5"></circle>
                    <rect id="Rectangle-Copy-20" fill="#CBD5DF" fill-rule="nonzero" x="15" y="3" width="71" height="4"></rect>
                    <rect id="Rectangle-Copy-21" fill="#CBD5DF" fill-rule="nonzero" x="93" y="3" width="23" height="5"></rect>
                    <rect id="Rectangle-Copy-22" fill="#CBD5DF" fill-rule="nonzero" x="123" y="3" width="23" height="5"></rect>
                    <rect id="Rectangle-Copy-23" fill="#CBD5DF" fill-rule="nonzero" x="192" y="3" width="23" height="5"></rect>
                    <rect id="Rectangle-Copy-24" fill="#CBD5DF" fill-rule="nonzero" x="153" y="3" width="32" height="5"></rect>
                    <rect id="Rectangle-Copy-41" fill="#CBD5DF" fill-rule="nonzero" x="222" y="3" width="32" height="5"></rect>
                    <rect id="Rectangle-Copy-53" fill="#CBD5DF" fill-rule="nonzero" x="261" y="3" width="38" height="5"></rect>
                </g>
                <g id="Group-15" stroke-width="1" fill-rule="evenodd" transform="translate(136.000000, 194.000000)">
                    <circle id="Oval-Copy-5" fill="#774757" cx="5" cy="5" r="5"></circle>
                    <rect id="Rectangle-Copy-20" fill="#CBD5DF" fill-rule="nonzero" x="15" y="3" width="71" height="4"></rect>
                    <rect id="Rectangle-Copy-21" fill="#CBD5DF" fill-rule="nonzero" x="93" y="3" width="23" height="5"></rect>
                    <rect id="Rectangle-Copy-22" fill="#CBD5DF" fill-rule="nonzero" x="123" y="3" width="23" height="5"></rect>
                    <rect id="Rectangle-Copy-23" fill="#CBD5DF" fill-rule="nonzero" x="192" y="3" width="23" height="5"></rect>
                    <rect id="Rectangle-Copy-24" fill="#CBD5DF" fill-rule="nonzero" x="153" y="3" width="32" height="5"></rect>
                    <rect id="Rectangle-Copy-42" fill="#CBD5DF" fill-rule="nonzero" x="222" y="3" width="32" height="5"></rect>
                    <rect id="Rectangle-Copy-54" fill="#CBD5DF" fill-rule="nonzero" x="261" y="3" width="38" height="5"></rect>
                </g>
                <g id="Group-11" stroke-width="1" fill-rule="evenodd" transform="translate(136.000000, 121.000000)">
                    <circle id="Oval-Copy-6" fill="#253F5A" cx="5" cy="5" r="5"></circle>
                    <rect id="Rectangle-Copy-25" fill="#CBD5DF" fill-rule="nonzero" x="15" y="3" width="71" height="4"></rect>
                    <rect id="Rectangle-Copy-26" fill="#CBD5DF" fill-rule="nonzero" x="93" y="3" width="23" height="5"></rect>
                    <rect id="Rectangle-Copy-27" fill="#CBD5DF" fill-rule="nonzero" x="123" y="3" width="23" height="5"></rect>
                    <rect id="Rectangle-Copy-28" fill="#CBD5DF" fill-rule="nonzero" x="192" y="3" width="23" height="5"></rect>
                    <rect id="Rectangle-Copy-29" fill="#CBD5DF" fill-rule="nonzero" x="153" y="3" width="32" height="5"></rect>
                    <rect id="Rectangle-Copy-43" fill="#CBD5DF" fill-rule="nonzero" x="222" y="3" width="32" height="5"></rect>
                    <rect id="Rectangle-Copy-55" fill="#CBD5DF" fill-rule="nonzero" x="261" y="3" width="38" height="5"></rect>
                </g>
                <g id="Group-16" stroke-width="1" fill-rule="evenodd" transform="translate(136.000000, 212.000000)">
                    <circle id="Oval-Copy-6" fill="#253F5A" cx="5" cy="5" r="5"></circle>
                    <rect id="Rectangle-Copy-25" fill="#CBD5DF" fill-rule="nonzero" x="15" y="3" width="71" height="4"></rect>
                    <rect id="Rectangle-Copy-26" fill="#CBD5DF" fill-rule="nonzero" x="93" y="3" width="23" height="5"></rect>
                    <rect id="Rectangle-Copy-27" fill="#CBD5DF" fill-rule="nonzero" x="123" y="3" width="23" height="5"></rect>
                    <rect id="Rectangle-Copy-28" fill="#CBD5DF" fill-rule="nonzero" x="192" y="3" width="23" height="5"></rect>
                    <rect id="Rectangle-Copy-29" fill="#CBD5DF" fill-rule="nonzero" x="153" y="3" width="32" height="5"></rect>
                    <rect id="Rectangle-Copy-44" fill="#CBD5DF" fill-rule="nonzero" x="222" y="3" width="32" height="5"></rect>
                    <rect id="Rectangle-Copy-56" fill="#CBD5DF" fill-rule="nonzero" x="261" y="3" width="38" height="5"></rect>
                </g>
                <g id="Group-12" stroke-width="1" fill-rule="evenodd" transform="translate(136.000000, 140.000000)">
                    <circle id="Oval-Copy-7" fill="#85843D" cx="5" cy="5" r="5"></circle>
                    <rect id="Rectangle-Copy-30" fill="#CBD5DF" fill-rule="nonzero" x="15" y="3" width="71" height="4"></rect>
                    <rect id="Rectangle-Copy-31" fill="#CBD5DF" fill-rule="nonzero" x="93" y="3" width="23" height="5"></rect>
                    <rect id="Rectangle-Copy-32" fill="#CBD5DF" fill-rule="nonzero" x="123" y="3" width="23" height="5"></rect>
                    <rect id="Rectangle-Copy-33" fill="#CBD5DF" fill-rule="nonzero" x="192" y="3" width="23" height="5"></rect>
                    <rect id="Rectangle-Copy-34" fill="#CBD5DF" fill-rule="nonzero" x="153" y="3" width="32" height="5"></rect>
                    <rect id="Rectangle-Copy-45" fill="#CBD5DF" fill-rule="nonzero" x="222" y="3" width="32" height="5"></rect>
                    <rect id="Rectangle-Copy-57" fill="#CBD5DF" fill-rule="nonzero" x="261" y="3" width="38" height="5"></rect>
                </g>
                <g id="Group-17" stroke-width="1" fill-rule="evenodd" transform="translate(136.000000, 230.000000)">
                    <circle id="Oval-Copy-7" fill="#85843D" cx="5" cy="5" r="5"></circle>
                    <rect id="Rectangle-Copy-30" fill="#CBD5DF" fill-rule="nonzero" x="15" y="3" width="71" height="4"></rect>
                    <rect id="Rectangle-Copy-31" fill="#CBD5DF" fill-rule="nonzero" x="93" y="3" width="23" height="5"></rect>
                    <rect id="Rectangle-Copy-32" fill="#CBD5DF" fill-rule="nonzero" x="123" y="3" width="23" height="5"></rect>
                    <rect id="Rectangle-Copy-33" fill="#CBD5DF" fill-rule="nonzero" x="192" y="3" width="23" height="5"></rect>
                    <rect id="Rectangle-Copy-34" fill="#CBD5DF" fill-rule="nonzero" x="153" y="3" width="32" height="5"></rect>
                    <rect id="Rectangle-Copy-46" fill="#CBD5DF" fill-rule="nonzero" x="222" y="3" width="32" height="5"></rect>
                    <rect id="Rectangle-Copy-58" fill="#CBD5DF" fill-rule="nonzero" x="261" y="3" width="38" height="5"></rect>
                </g>
                <ellipse id="Oval-Copy" fill="#253F5A" fill-rule="evenodd" opacity="0.5" transform="translate(317.000000, 309.000000) scale(-1, 1) translate(-317.000000, -309.000000) " cx="317" cy="309" rx="150" ry="7"></ellipse>
                <g id="Combined-Shape" opacity="0.1" stroke-width="1" fill-rule="evenodd" transform="translate(127.000000, 57.000000)">
                    <mask id="mask-2" fill="white">
                        <use xlink:href="#path-1"></use>
                    </mask>
                    <g id="Mask" fill-rule="nonzero"></g>
                    <path d="M245.692498,114.319997 L267.466542,152.033747 L223.918455,152.033747 L245.692498,114.319997 Z M270.612498,49.3499984 C281.549116,49.3499984 290.414998,58.2158795 290.414998,69.152498 C290.414998,80.0891166 281.549116,88.9549977 270.612498,88.9549977 C259.675879,88.9549977 250.809998,80.0891166 250.809998,69.152498 C250.809998,58.2158795 259.675879,49.3499984 270.612498,49.3499984 Z M179.832499,42.2299985 C190.769118,42.2299985 199.634999,51.0958796 199.634999,62.0324982 C199.634999,72.9691167 190.769118,81.8349978 179.832499,81.8349978 C168.895881,81.8349978 160.03,72.9691167 160.03,62.0324982 C160.03,51.0958796 168.895881,42.2299985 179.832499,42.2299985 Z M187.241749,-53 C194.897382,-53 201.103498,-46.7938833 201.103498,-39.1382505 C201.103498,-37.0992954 200.663275,-35.1631601 199.872691,-33.4197064 L236.124998,-33.4200003 C240.303032,-33.4200003 243.689998,-30.0330345 243.689998,-25.8550004 L243.689998,23.0949988 C243.689998,27.2730328 240.303032,30.6599987 236.124998,30.6599987 L224.258,30.659 L231.54827,43.2868735 L209.774227,43.2868735 L217.064,30.659 L187.174999,30.6599987 C182.996965,30.6599987 179.609999,27.2730328 179.609999,23.0949988 L179.609999,-25.8550004 C179.609999,-26.4039858 179.668477,-26.9393131 179.779542,-27.455093 C175.93127,-29.9171188 173.379999,-34.2297441 173.379999,-39.1382505 C173.379999,-46.7938833 179.586116,-53 187.241749,-53 Z M164.2575,-21.8500005 C166.346517,-21.8500005 168.039999,-20.1565176 168.039999,-18.0675006 L168.039999,6.40749905 C168.039999,8.49651608 166.346517,10.189999 164.2575,10.189999 L139.7825,10.189999 C137.693483,10.189999 136,8.49651608 136,6.40749905 L136,-18.0675006 C136,-20.1565176 137.693483,-21.8500005 139.7825,-21.8500005 L164.2575,-21.8500005 Z M282.360498,-20.9600005 C283.613908,-20.9600005 284.629998,-19.9439108 284.629998,-18.6905006 L284.629998,-3.64950079 C284.629998,-2.39609057 283.613908,-1.38000083 282.360498,-1.38000083 L267.319498,-1.38000083 C266.066088,-1.38000083 265.049998,-2.39609057 265.049998,-3.64950079 L265.049998,-18.6905006 C265.049998,-19.9439108 266.066088,-20.9600005 267.319498,-20.9600005 L282.360498,-20.9600005 Z" fill="#0050A6" fill-rule="nonzero" mask="url(#mask-2)"></path>
                </g>
                <g id="Group-6" stroke-width="1" fill-rule="evenodd" transform="translate(255.000000, 0.000000)">
                    <g id="Group-2" transform="translate(43.609999, 19.580000)">
                        <rect id="Rectangle" fill="#85843D" fill-rule="nonzero" x="0" y="0" width="64.079999" height="64.079999" rx="7.56499988"></rect>
                        <text id="13.42" font-family="Avenir-Medium, Avenir" font-size="15.1299998" font-weight="400" fill="#FFFFFF">
                            <tspan x="12.2223698" y="37.6949996">13.42</tspan>
                        </text>
                    </g>
                    <g id="Group" transform="translate(129.049998, 32.039999)">
                        <rect id="Rectangle-Copy-2" fill="#FFCA04" fill-rule="nonzero" x="0" y="0" width="19.5799997" height="19.5799997" rx="2.26949996"></rect>
                        <text id="0.137" font-family="Avenir-Heavy, Avenir" font-size="4.53899993" font-weight="600" fill="#FFFFFF">
                            <tspan x="3.51637752" y="11.9026743">0.137</tspan>
                        </text>
                    </g>
                    <g id="Group-4" transform="translate(114.809998, 102.349998)">
                        <circle id="Oval" fill="#966274" fill-rule="nonzero" cx="19.8024997" cy="19.8024997" r="19.8024997"></circle>
                        <text id="50M" font-family="Avenir-Medium, Avenir" font-size="9.07799931" font-weight="400" fill="#FFFFFF">
                            <tspan x="10.8652984" y="23.6849998">50M</tspan>
                        </text>
                    </g>
                    <g id="Group-5" transform="translate(84.549999, 167.319997)">
                        <polygon id="Polygon" fill="#FFCA04" fill-rule="nonzero" points="25.1424996 0 46.916543 37.7137494 3.36845623 37.7137494"></polygon>
                        <text id="23%" font-family="Avenir-Medium, Avenir" font-size="8.17019938" font-weight="400" fill="#FFFFFF">
                            <tspan x="17.5643638" y="29.3599997">23%</tspan>
                        </text>
                    </g>
                    <g id="Group-5-Copy" transform="translate(72.089999, 77.429999)">
                        <polygon id="Polygon" fill="#FFCA04" fill-rule="nonzero" points="12.5712498 0 23.4582715 18.8568747 1.68422812 18.8568747"></polygon>
                        <text id="118k" font-family="Avenir-Medium, Avenir" font-size="4.08509969" font-weight="400" fill="#FFFFFF">
                            <tspan x="8.32669328" y="14.6799998">118k</tspan>
                        </text>
                    </g>
                    <g id="Group-3" transform="translate(0.000000, 31.149999)">
                        <rect id="Rectangle-Copy" fill="#738394" fill-rule="nonzero" x="0" y="0" width="32.0399995" height="32.0399995" rx="3.78249994"></rect>
                        <text id="52" font-family="Avenir-Heavy, Avenir" font-size="7.56499988" font-weight="600" fill="#FFFFFF">
                            <tspan x="11.3190198" y="19.5699998">52</tspan>
                        </text>
                    </g>
                    <g id="Group-4-Copy-2" transform="translate(24.030000, 95.229998)">
                        <circle id="Oval" fill="#738394" fill-rule="nonzero" cx="19.8024997" cy="19.8024997" r="19.8024997"></circle>
                        <text id="2.2k" font-family="Avenir-Medium, Avenir" font-size="9.07799931" font-weight="400" fill="#FFFFFF">
                            <tspan x="11.3600493" y="23.6849998">2.2k</tspan>
                        </text>
                    </g>
                    <g id="Group-4-Copy" transform="translate(37.379999, 0.000000)">
                        <circle id="Oval" fill="#D9E0B8" fill-rule="nonzero" cx="13.8617495" cy="13.8617495" r="13.8617495"></circle>
                        <text id="2k" font-family="Avenir-Heavy, Avenir" font-size="6.35459941" font-weight="600" fill="#FFFFFF">
                            <tspan x="10.4303282" y="16.2794997">2k</tspan>
                        </text>
                    </g>
                </g>
            </g>
        </g>
    </g>
</svg>