<?xml version="1.0" encoding="UTF-8"?>
<svg width="24px" height="24px" viewBox="0 0 24 24" version="1.1" xmlns="http://www.w3.org/2000/svg" xmlns:xlink="http://www.w3.org/1999/xlink">
    <!-- Generator: Sketch 57 (83077) - https://sketch.com -->
    <title>cmmMark</title>
    <desc>Created with Sketch.</desc>
    <g id="Symbols" stroke="none" stroke-width="1" fill="none" fill-rule="evenodd">
        <g id="Nav/_Components/Desktop-Inner" transform="translate(-1201.000000, -20.000000)" fill="#FEC10E">
            <path d="M1212.98133,20 L1208.45123,24.5330526 L1210.96084,24.5338947 L1210.96337,26.6659649 L1211.03846,26.6659649 L1210.96337,26.7407719 L1210.96337,26.7431579 L1213.02232,24.938807 L1214.92758,26.6725614 L1215.00519,26.6725614 L1215.00463,24.5338947 L1217.51551,24.5338947 L1212.98133,20 Z M1210.92898,28.4545965 L1212.06919,28.4548772 L1212.06863,31.0430877 L1209.57909,31.042386 L1209.58147,29.8981053 L1207.51523,31.9654737 L1209.57895,34.0284912 L1209.57909,32.8870175 L1212.06849,32.8863158 L1212.06835,35.3775439 L1210.92589,35.3769825 L1212.99018,37.4397193 L1215.05768,35.3730526 L1213.91172,35.3738947 L1213.91214,32.8861754 L1216.56505,32.8857544 L1216.56786,34.026807 L1218.62947,31.9657544 L1216.56505,29.9007719 L1216.56295,31.0442105 L1213.91242,31.0433684 L1213.9127,28.4550175 L1215.05684,28.4581053 L1212.99018,26.3917193 L1210.92898,28.4545965 Z M1207.6647,26.6662456 L1207.66611,29.9644912 L1205.53193,29.9644912 L1205.53319,27.4548772 L1201,31.9879298 L1205.53291,36.5162105 L1205.53193,34.0074386 L1207.6626,34.0074386 L1207.66344,37.306807 L1210.96379,37.3062456 L1210.96,39.4356491 L1208.45123,39.4392982 L1212.98133,43.9716491 L1217.51607,39.4394386 L1215.00519,39.4394386 L1215.00519,37.3004912 L1218.29965,37.2997895 L1218.29965,34.0074386 L1220.43705,34.0074386 L1220.43705,36.5162105 L1224.96954,31.9852632 L1220.43705,27.4548772 L1220.43705,29.9647719 L1218.29726,29.9644912 L1218.29726,26.6725614 L1215.00519,26.6725614 L1215.00519,26.7432982 L1214.92758,26.6725614 L1214.92674,26.6725614 L1215.85754,27.6064561 L1217.36365,29.1093333 L1218.29726,30.0384561 L1218.29726,30.0373333 L1220.14133,31.9445614 L1218.29965,33.9289825 L1218.29965,33.9257544 L1217.36491,34.8623158 L1215.86218,36.3696842 L1214.976,37.2551579 L1213.0226,39.1009123 L1210.96393,37.2277895 L1210.96393,37.2381754 L1210.10063,36.3734737 L1208.59804,34.8704561 L1207.73768,34.0074386 L1207.73867,34.0074386 L1205.71495,31.8304561 L1207.74007,29.9644912 L1207.73361,29.9644912 L1208.59635,29.1027368 L1210.10288,27.5985965 L1210.96337,26.7407719 L1210.96337,26.6659649 L1207.6647,26.6662456 Z" id="CMM-Mark"></path>
        </g>
    </g>
</svg>