<?xml version="1.0" encoding="UTF-8"?>
<svg width="468px" height="312px" viewBox="0 0 468 312" version="1.1" xmlns="http://www.w3.org/2000/svg" xmlns:xlink="http://www.w3.org/1999/xlink">
    <!-- Generator: Sketch 57 (83077) - https://sketch.com -->
    <title>Illustrations/Sort Page</title>
    <desc>Created with Sketch.</desc>
    <g id="Sort-+-Compare" stroke="none" stroke-width="1" fill="none" fill-rule="evenodd">
        <g id="Desktop-HD" transform="translate(-1097.000000, -183.000000)">
            <g id="Illustrations/Sort-Page" transform="translate(1097.000000, 183.000000)">
                <g id="BG" stroke-width="1">
                    <path d="M455.614138,290.460345 C450.683103,294.548621 444.73,297.462414 438.301724,299.618621 C437.366322,299.938391 436.417471,300.237241 435.455172,300.515172 C432.971724,301.254828 430.43,301.895862 427.865862,302.456207 C426.601724,302.738621 425.328621,302.998621 424.055517,303.24069 C421.890345,303.657586 419.716207,304.029655 417.555517,304.370345 C409.535862,305.63 401.462414,306.562414 393.348621,307.27069 C390.847241,307.491839 388.344368,307.690575 385.84,307.866897 L384.840345,307.938621 L383.047241,308.059655 L381.944483,308.131379 C380.267931,308.243448 378.591379,308.342069 376.91931,308.436207 C370.217586,308.812759 363.506897,309.086207 356.796207,309.332759 C351.865172,309.503103 346.983448,309.646552 342.07931,309.781034 L332.105172,310.072414 L329.527586,310.148621 L328.397931,310.18 C325.445287,310.269655 322.489655,310.354828 319.531034,310.435517 L318.697241,310.457931 L316.097241,310.534138 L311.166207,310.668621 L309.695862,310.708966 L308.351034,310.744828 C277.047931,311.587586 245.722414,312.201724 214.437241,311.937241 C211.932874,311.91931 209.43,311.892414 206.928621,311.856552 C183.698966,311.556207 160.496207,310.744828 137.333793,309.166897 C129.193103,308.611034 120.998621,307.938621 112.848966,307.01069 C110.338621,306.726782 107.835747,306.417471 105.340345,306.082759 C85.3203448,303.393103 65.7934483,298.856552 48.3017241,290.393103 C35.1268966,284.005172 22.9651724,274.918621 17.8637931,262.828621 C12.7131034,250.626552 15.4386207,236.922759 21.32,224.962759 C27.2013793,213.002759 36.0503448,202.284483 43.68,191.046207 C46.3024138,187.177586 48.7813793,183.147586 51.0272414,179.005517 C51.1617241,178.754483 51.3006897,178.498966 51.4306897,178.247931 C52.5812644,176.087241 53.666092,173.899655 54.6851724,171.685172 L54.6851724,171.685172 C55.6534483,169.575287 56.55,167.444483 57.3748276,165.292759 C57.6228736,164.65023 57.8604598,164.009195 58.0875862,163.369655 C58.1144828,163.297931 58.1413793,163.226207 58.1637931,163.154483 C58.1862069,163.082759 58.222069,162.993103 58.2489655,162.912414 C59.6991278,158.842264 60.8292299,154.665083 61.6289655,150.418966 L61.7365517,149.827241 C61.7858621,149.544828 61.8351724,149.266897 61.88,148.984483 C61.9248276,148.702069 61.9651724,148.46 62.0055172,148.195517 L62.0055172,148.195517 C62.6284609,144.215641 62.8611749,140.184433 62.7003448,136.15931 C62.7003448,136.011379 62.7003448,135.863448 62.7003448,135.711034 C62.6008745,133.647716 62.3763242,131.592331 62.027931,129.556207 L62.027931,129.556207 C62.0010345,129.381379 61.9741379,129.211034 61.9382759,129.04069 C61.4160122,126.120038 60.625184,123.253848 59.5758621,120.478621 C59.5310345,120.357586 59.4817241,120.232069 59.4324138,120.106552 C59.4324138,120.052759 59.392069,119.994483 59.3696552,119.94069 C59.0334483,119.084483 58.6748276,118.237241 58.2803448,117.39 L58.2803448,117.39 C58.2175862,117.246552 58.1458621,117.098621 58.0786207,116.941724 L58.0786207,116.941724 C57.9486207,116.668276 57.8186207,116.394828 57.6796552,116.125862 L57.6796552,116.125862 C57.0490805,114.837816 56.3467816,113.566207 55.5727586,112.311034 C54.6762069,110.818276 53.6586207,109.356897 52.6141379,107.922414 L52.4662069,107.72069 L52.3451724,107.550345 C50.9734483,105.681034 49.5389655,103.843103 48.1403448,101.987241 C47.042069,100.53931 45.9662069,99.0824138 44.9575862,97.5986207 L44.7782759,97.3296552 C43.5557179,95.5389543 42.4650244,93.6617029 41.5148276,91.7127586 C41.3265517,91.3137931 41.1427586,90.9148276 40.9724138,90.5113793 C40.6675862,89.8031034 40.3851724,89.0903448 40.1341379,88.3731034 C36.6913793,78.6455172 37.7358621,68.0213793 39.39,57.8903448 C41.842069,42.8372414 46.4055172,26.6141379 60.5306897,17.2182759 C72.8627586,9.01034483 89.552069,8.05103448 105.358276,10.0458621 C107.891034,10.3596552 110.396897,10.7496552 112.866897,11.197931 L114.211724,11.4534483 C134.204828,15.2862069 153.113103,22.0731034 171.788276,29.3396552 C176.15,31.0386207 180.502759,32.7644828 184.851034,34.4813793 C188.248966,35.8232184 191.648391,37.1575862 195.04931,38.4844828 C198.979195,40.0145977 202.938966,41.5088506 206.928621,42.9672414 C209.421034,43.8817241 211.923908,44.7782759 214.437241,45.6568966 C218.468736,47.0585057 222.527126,48.3898851 226.612414,49.6510345 C229.505287,50.5475862 232.413103,51.3918391 235.335862,52.1837931 C249.232414,55.9672414 263.487586,58.5896552 278.078966,59.0962069 C289.19362,59.4874007 300.312714,58.4569901 311.166207,56.03 C313.698966,55.4562069 316.20931,54.7972414 318.674828,54.0531034 C322.116792,53.01657 325.498944,51.7909141 328.805862,50.3817241 C337.148276,46.7955172 344.647931,42.0617241 350.583103,36.0368966 L350.632414,35.9875862 C359.423103,27.0713793 372.311034,22.5393103 385.813103,21.7817241 C388.313659,21.6404941 390.819795,21.6270283 393.321724,21.7413793 C402.709021,22.1297429 411.938246,24.2895155 420.523103,28.1068966 C441.878966,37.7896552 455.690345,58.2893103 454.650345,78.762069 C453.139655,108.563448 424.409655,131.438966 407.267586,157.51069 C406.057241,159.348621 404.905172,161.244828 403.833793,163.181379 C403.43931,163.889655 403.062759,164.602414 402.695172,165.319655 C398.472414,173.567931 395.935172,182.475172 397.315862,191.032759 C397.556238,192.541414 397.922106,194.027375 398.409655,195.475172 C398.620345,196.107241 398.857931,196.73931 399.122414,197.366897 C401.090345,202.055862 404.201379,206.032069 408.038621,209.568966 C409.778424,211.158979 411.608968,212.646764 413.521034,214.024828 C429.515517,225.653103 452.682414,232.986897 462.916552,248.873793 C471.478621,262.048621 468.313793,279.912414 455.614138,290.460345 Z" id="Path" fill="#0050A6" fill-rule="nonzero" opacity="0.05"></path>
                    <path d="M393.357586,234.345172 L393.357586,165.270345 L402.731034,165.270345 C403.098621,164.553103 403.475172,163.840345 403.869655,163.132069 L393.357586,163.132069 L393.357586,90.5113793 L430.116207,90.5113793 C430.035517,89.7986207 429.945862,89.0768966 429.856207,88.3731034 L393.357586,88.3731034 L393.357586,21.692069 C390.855657,21.577718 388.349521,21.5911838 385.848966,21.7324138 L385.848966,88.3596552 L318.71069,88.3596552 L318.71069,54.0172414 C316.245172,54.7613793 313.734828,55.4203448 311.202069,55.9941379 L311.202069,88.3596552 L215.365172,88.3596552 L215.136552,87.9517241 L235.371724,52.147931 C232.448966,51.355977 229.541149,50.5117241 226.648276,49.6151724 L214.473103,71.1548276 L214.473103,45.6031034 C211.95977,44.7304598 209.456897,43.833908 206.964483,42.9134483 L206.964483,73.5217241 L184.886897,34.4589655 C180.538621,32.742069 176.185862,31.0162069 171.824138,29.3172414 L204.996552,87.9741379 L204.763448,88.382069 L112.884828,88.382069 L112.884828,11.1531034 C110.414828,10.7048276 107.908966,10.3148276 105.376207,10.0010345 L105.376207,88.3596552 L40.1341379,88.3596552 C40.3851724,89.0768966 40.6675862,89.7896552 40.9724138,90.497931 L105.376207,90.497931 L105.376207,163.118621 L58.1906897,163.118621 C58.1682759,163.190345 58.1413793,163.262069 58.1144828,163.333793 C57.8873563,163.973333 57.6497701,164.614368 57.4017241,165.256897 L105.367241,165.256897 L105.367241,234.345172 L37.83,234.345172 C38.0391954,235.056437 38.2558621,235.769195 38.48,236.483448 L105.376207,236.483448 L105.376207,307.167586 C107.886552,307.831034 110.389425,308.524368 112.884828,309.247586 L112.884828,236.483448 L206.968966,236.483448 L206.968966,311.865517 C209.470345,311.901379 211.973218,311.928276 214.477586,311.946207 L214.477586,236.483448 L311.202069,236.483448 L311.202069,310.659655 L316.133103,310.525172 L318.733103,310.448966 L318.733103,236.483448 L385.831034,236.483448 L385.831034,307.875862 C388.335402,307.696552 390.838276,307.497816 393.339655,307.279655 L393.339655,236.483448 L422.701724,236.483448 C422.621034,235.77069 422.544828,235.057931 422.468621,234.345172 L393.357586,234.345172 Z M206.964483,234.345172 L112.884828,234.345172 L112.884828,165.270345 L206.968966,165.270345 L206.964483,234.345172 Z M206.964483,163.132069 L112.884828,163.132069 L112.884828,90.5113793 L205.624138,90.5113793 L206.968966,92.4524138 L206.964483,163.132069 Z M311.202069,234.345172 L214.473103,234.345172 L214.473103,165.270345 L311.202069,165.270345 L311.202069,234.345172 Z M311.202069,163.132069 L214.473103,163.132069 L214.473103,90.5113793 L311.202069,90.5113793 L311.202069,163.132069 Z M385.831034,234.345172 L318.71069,234.345172 L318.71069,165.270345 L385.831034,165.270345 L385.831034,234.345172 Z M385.831034,163.132069 L318.71069,163.132069 L318.71069,90.5113793 L385.831034,90.5113793 L385.831034,163.132069 Z" id="Shape" fill="#FFFFFF" fill-rule="nonzero"></path>
                    <path d="M356.052069,43.1555172 C356.107651,44.5835291 354.996526,45.7869142 353.568621,45.8451724 L348.556897,45.8451724 C349.704049,46.1843922 350.482442,47.2491746 350.457586,48.4451724 C350.513169,49.8731843 349.402043,51.0765694 347.974138,51.1348276 L330.563103,51.1348276 C329.910093,51.1315137 329.287349,50.8590633 328.841724,50.3817241 C337.184138,46.7955172 344.683793,42.0617241 350.618966,36.0368966 L350.668276,35.9875862 L351.215172,35.9875862 C351.883423,35.9924587 352.519093,36.2769659 352.967931,36.772069 C353.929652,37.8395942 353.929652,39.4610954 352.967931,40.5286207 L353.555172,40.5286207 C354.96329,40.5796662 356.072496,41.7466224 356.052069,43.1555172 L356.052069,43.1555172 Z" id="Path" fill="#0050A6" fill-rule="nonzero" opacity="0.05"></path>
                    <path d="M164.893793,65.9458621 L164.315517,65.9458621 C164.774607,65.4335396 165.027023,64.7689494 165.023793,64.0810345 L165.023793,64.0810345 C165.079376,62.6530226 163.96825,61.4496375 162.540345,61.3913793 L145.12931,61.3913793 C143.701405,61.4496375 142.59028,62.6530226 142.645862,64.0810345 L142.645862,64.0810345 C142.59028,65.5090464 143.701405,66.7124315 145.12931,66.7706897 L145.712069,66.7706897 C145.251353,67.2823438 144.997311,67.9470078 144.99931,68.6355172 C144.976004,69.8310264 145.753783,70.8949696 146.9,71.2355172 L141.888276,71.2355172 C140.52311,71.3836207 139.488713,72.5363068 139.488713,73.9094828 C139.488713,75.2826587 140.52311,76.4353448 141.888276,76.5834483 L159.29931,76.5834483 C160.727216,76.5251901 161.838341,75.321805 161.782759,73.8937931 C161.817601,72.6973559 161.0459,71.6261616 159.9,71.2803448 L164.911724,71.2803448 C166.286247,71.1423746 167.33275,69.9855681 167.33275,68.6041379 C167.33275,67.2227078 166.286247,66.0659013 164.911724,65.927931 L164.893793,65.9458621 Z" id="Path" fill="#6C63FF" opacity="0.1"></path>
                    <circle id="Oval" fill="#0050A6" fill-rule="nonzero" opacity="0.05" cx="300.546552" cy="20.557931" r="6.06965517"></circle>
                    <circle id="Oval" fill="#0050A6" fill-rule="nonzero" opacity="0.05" cx="21.2437931" cy="85.5310345" r="6.06965517"></circle>
                    <circle id="Oval" fill="#0050A6" fill-rule="nonzero" opacity="0.05" cx="447.912759" cy="128.641724" r="6.06965517"></circle>
                    <circle id="Oval" fill="#0050A6" fill-rule="nonzero" opacity="0.05" cx="423.356207" cy="165.270345" r="6.06965517"></circle>
                    <circle id="Oval" fill="#0050A6" fill-rule="nonzero" opacity="0.05" cx="318.410345" cy="11.3862069" r="2.79724138"></circle>
                    <circle id="Oval" fill="#0050A6" fill-rule="nonzero" opacity="0.05" cx="2.79724138" cy="71.4372414" r="2.79724138"></circle>
                    <circle id="Oval" fill="#0050A6" fill-rule="nonzero" opacity="0.05" cx="444.640345" cy="199.81" r="2.79724138"></circle>
                    <circle id="Oval" fill="#0050A6" fill-rule="nonzero" opacity="0.05" cx="333.642759" cy="1.97689655" r="1.97689655"></circle>
                    <circle id="Oval" fill="#0050A6" fill-rule="nonzero" opacity="0.05" cx="15.1741379" cy="113.427241" r="1.97689655"></circle>
                </g>
                <g id="Plant" stroke-width="1" transform="translate(1.000000, 69.000000)">
                    <path d="M13.4254692,77.5391849 C21.5607548,80.4966715 30.6767086,77.9930412 36.1602414,71.2952455 C41.6437741,64.5974498 42.2986213,55.1666516 37.7934003,47.7752659 C33.2881793,40.3838802 24.6057302,36.6443807 16.1397692,38.4491249 L16.6499292,48.9398749 L11.6865592,39.9492049 C6.8152934,42.2380769 3.05203129,46.3673029 1.22375917,51.4294749 C0.574469918,53.2026866 0.179752073,55.0589661 0.0513791723,56.9429449 C-0.592384388,66.025197 4.86684519,74.4324682 13.4254692,77.5391849 Z" id="Path" fill="#85843D"></path>
                    <path d="M38.8397199,199.73254 C37.0876499,190.81061 44.6797199,182.90105 52.1789999,177.75986 C59.6782799,172.61867 68.4406999,167.56724 70.9994499,158.84237 C74.6768399,146.3032 63.7230299,134.81967 55.1973899,124.91677 C48.872153,117.567695 43.4402637,109.494817 39.0153899,100.86707 C37.091666,97.4781407 35.781385,93.7761808 35.1448799,89.93165 C34.4726599,84.37352 36.2583099,78.84265 38.0572999,73.54093 C44.0502866,55.8793033 50.4578332,38.36566 57.2799399,21" id="Path" stroke="#FFCA04"></path>
                    <path d="M14.4254594,74.5391849 C22.560745,77.4966715 31.6766989,74.9930412 37.1602316,68.2952455 C42.6437644,61.5974498 43.2986115,52.1666516 38.7933906,44.7752659 C34.2881696,37.3838802 25.6057205,33.6443807 17.1397594,35.4491249 L17.6499294,45.9398649 L12.6865594,36.9492049 C7.81528918,39.2380689 4.05202232,43.3672925 2.22374942,48.4294649 C1.57446901,50.2026821 1.17975472,52.0589641 1.05137942,53.9429449 C0.407614461,63.0251943 5.8668394,71.4324647 14.4254594,74.5391849 Z" id="Path" stroke="#FFCA04"></path>
                    <path d="M36.2234899,17.4261 C38.5894534,10.8979525 44.1194991,6.02586217 50.8937299,4.5013 L52.5719199,14.47455 L55.6832699,4 C64.547192,4.13146423 72.3094335,9.97785283 74.8830491,18.4609478 C77.4566646,26.9440427 74.251264,36.1178129 66.9545424,41.1521203 C59.6578208,46.1864277 49.943654,45.9263967 42.9267076,40.5089378 C35.9097612,35.091479 33.1997303,25.7593631 36.2234899,17.4261 L36.2234899,17.4261 Z" id="Path" fill="#85843D"></path>
                    <path d="M37.2234935,13.42609 C39.5894649,6.89794596 45.119513,2.02586062 51.8937435,0.5013 L53.5719335,10.47455 L56.6832735,0 C65.5471962,0.13146581 73.3094371,5.9778566 75.8830506,14.4609528 C78.4566641,22.944049 75.2512605,32.1178191 67.9545366,37.1521243 C60.6578127,42.1864295 50.9436451,41.9263947 43.9267006,36.5089324 C36.9097561,31.0914701 34.1997294,21.7593522 37.2234935,13.42609 L37.2234935,13.42609 Z" id="Path" stroke="#FFCA04"></path>
                    <path d="M51.4428916,124.544656 C61.1829262,128.077727 72.0236544,123.740455 76.638735,114.464039 C81.2538156,105.187622 78.1741995,93.9248838 69.4811416,88.2873655 L67.0904016,96.3367055 L65.3951316,86.2459055 C65.3783808,86.2379959 65.361034,86.2314156 65.3432516,86.2262255 C58.4970501,83.7379587 50.8433348,85.0927373 45.2672447,89.7798649 C39.6911545,94.4669925 37.040552,101.773776 38.3146064,108.945856 C39.5886608,116.117936 44.593648,122.064775 51.4428916,124.544656 L51.4428916,124.544656 Z" id="Path" fill="#85843D"></path>
                    <path d="M52.4398846,121.543567 C62.1799192,125.076638 73.0206474,120.739366 77.635728,111.46295 C82.2508085,102.186534 79.1711925,90.923795 70.4781346,85.2862768 L68.0873946,93.3356168 L66.3921346,83.2448168 C66.3753805,83.2369148 66.3580344,83.2303348 66.3402546,83.2251368 C59.4943788,80.7382007 51.8416975,82.0936187 46.2664332,86.7805469 C40.6911689,91.467475 38.040874,98.7734059 39.3144192,105.944804 C40.5879644,113.116202 45.5917453,119.06287 52.4398846,121.543567 L52.4398846,121.543567 Z" id="Path" stroke="#FFCA04"></path>
                    <path d="M30.3130792,158.898817 C31.9803257,168.38573 40.064387,175.408308 49.691231,175.732508 C59.318075,176.056708 67.8562783,169.593911 70.1579982,160.24066 C72.4597181,150.887408 67.8957973,141.20034 59.2179091,137.019971 C50.5400209,132.839602 40.120199,135.308603 34.2407492,142.938367 L43.3217492,156.606367 L30.9137492,149.351817 C29.9516587,152.440089 29.7456539,155.714313 30.3130792,158.898817 L30.3130792,158.898817 Z" id="Path" fill="#85843D"></path>
                    <path d="M31.3130812,155.898809 C32.9803241,165.385724 41.064384,172.408306 50.6912289,172.732508 C60.3180738,173.05671 68.8562795,166.593915 71.158001,157.240663 C73.4597225,147.88741 68.895802,138.200341 60.2179129,134.019971 C51.5400239,129.839602 41.1202008,132.308603 35.2407512,139.938369 L44.3217512,153.606369 L31.9137512,146.351829 C30.9516579,149.440093 30.745653,152.714311 31.3130812,155.898809 L31.3130812,155.898809 Z" id="Path" stroke="#FFCA04"></path>
                </g>
                <g id="Chart" stroke-width="1" transform="translate(50.000000, 21.000000)">
                    <path d="M1.89159739,0.999842705 C1.85052699,0.994063982 1.69478831,1.11235949 1.48817274,1.52306946 C1.18529738,2.12512442 1,3.03153208 1,4.04667052 L1,247.205922 C1,249.025485 1.55737278,250.056475 1.76239679,249.99932 L194.700541,196.213958 C195.335562,196.036933 196,194.901575 196,193.706882 L196,30.3464902 C196,29.1912419 195.384754,28.2248858 194.829742,28.146794 L1.89159739,0.999842705 Z" id="Rectangle" stroke="#CBD5DF" stroke-width="2" fill="#FFFFFF" fill-rule="nonzero"></path>
                    <path d="M14,30.9927392 C15.6568542,31.1603663 17,28.4051851 17,24.8388697 C17,21.2725544 15.6568542,18.2154848 14,18.0107137 C12.3431458,17.8059426 11,20.5611237 11,24.1645831 C11,27.7680425 12.3431458,30.8251121 14,30.9927392 Z" id="Oval-Copy-3" fill="#536980"></path>
                    <polygon id="Rectangle-Copy-10" fill="#CBD5DF" fill-rule="nonzero" points="19 22 60 26.6023578 60 31 19 26.7507943"></polygon>
                    <polygon id="Rectangle-Copy-11" fill="#CBD5DF" fill-rule="nonzero" points="65 27 78 28.5344313 78 34 65 32.6127453"></polygon>
                    <polygon id="Rectangle-Copy-12" fill="#CBD5DF" fill-rule="nonzero" points="82 29 95 30.5776984 95 36 82 34.5736282"></polygon>
                    <polygon id="Rectangle-Copy-13" fill="#CBD5DF" fill-rule="nonzero" points="123 34 136 35.4460986 136 40 123 38.6926055"></polygon>
                    <polygon id="Rectangle-Copy-14" fill="#CBD5DF" fill-rule="nonzero" points="100 32 118 34.0874753 118 39 100 37.1127471"></polygon>
                    <polygon id="Rectangle-Copy-37" fill="#CBD5DF" fill-rule="nonzero" points="140 35 158 37.2246842 158 42 140 39.9886988"></polygon>
                    <polygon id="Rectangle-Copy-49" fill="#CBD5DF" fill-rule="nonzero" points="163 39 185 41.598361 185 46 163 43.6508636"></polygon>
                    <path d="M14,143.992356 C15.6568542,143.819422 17,140.786922 17,137.219077 C17,133.651233 15.6568542,130.868991 14,131.004765 C12.3431458,131.14054 11,134.17304 11,137.778044 C11,141.383048 12.3431458,144.16529 14,143.992356 Z" id="Oval-Copy-3" fill="#536980"></path>
                    <polygon id="Rectangle-Copy-10" fill="#CBD5DF" fill-rule="nonzero" points="19 134.811973 60 131 60 135.802373 19 140"></polygon>
                    <polygon id="Rectangle-Copy-11" fill="#CBD5DF" fill-rule="nonzero" points="65 130.202182 78 129 78 134.645789 65 136"></polygon>
                    <polygon id="Rectangle-Copy-12" fill="#CBD5DF" fill-rule="nonzero" points="82 129.060483 95 128 95 132.805406 82 134"></polygon>
                    <polygon id="Rectangle-Copy-13" fill="#CBD5DF" fill-rule="nonzero" points="123 125.136705 136 124 136 128.719545 123 130"></polygon>
                    <polygon id="Rectangle-Copy-14" fill="#CBD5DF" fill-rule="nonzero" points="100 127.655146 118 126 118 131.135542 100 133"></polygon>
                    <polygon id="Rectangle-Copy-38" fill="#CBD5DF" fill-rule="nonzero" points="140 125.516472 158 124 158 128.291753 140 130"></polygon>
                    <polygon id="Rectangle-Copy-50" fill="#CBD5DF" fill-rule="nonzero" points="163 121.785747 185 120 185 123.988425 163 126"></polygon>
                    <path d="M14,52.9974338 C15.6568542,53.0970449 17,50.28436 17,46.7151263 C17,43.1458927 15.6568542,40.1415705 14,40.0047849 C12.3431458,39.8679994 11,42.6806843 11,46.2870924 C11,49.8935006 12.3431458,52.8978227 14,52.9974338 Z" id="Oval-Copy-4" fill="#966274"></path>
                    <polygon id="Rectangle-Copy-15" fill="#CBD5DF" fill-rule="nonzero" points="19 45 60 48.2338035 60 53 19 50.1489453"></polygon>
                    <polygon id="Rectangle-Copy-16" fill="#CBD5DF" fill-rule="nonzero" points="65 48 78 48.9238973 78 54 65 53.2127918"></polygon>
                    <polygon id="Rectangle-Copy-17" fill="#CBD5DF" fill-rule="nonzero" points="82 49 95 49.9521917 95 55 82 54.1886835"></polygon>
                    <polygon id="Rectangle-Copy-18" fill="#CBD5DF" fill-rule="nonzero" points="123 53 136 53.85362 136 58 123 57.2726717"></polygon>
                    <polygon id="Rectangle-Copy-19" fill="#CBD5DF" fill-rule="nonzero" points="100 51 118 52.2959067 118 57 100 55.8958206"></polygon>
                    <polygon id="Rectangle-Copy-39" fill="#CBD5DF" fill-rule="nonzero" points="140 53 158 54.3918048 158 59 140 57.8141104"></polygon>
                    <polygon id="Rectangle-Copy-51" fill="#CBD5DF" fill-rule="nonzero" points="163 55 185 56.6606855 185 61 163 59.5850102"></polygon>
                    <path d="M14,166.985188 C15.6568542,166.744371 17,163.659762 17,160.095523 C17,156.531283 15.6568542,153.807023 14,154.010718 C12.3431458,154.214413 11,157.299021 11,160.900383 C11,164.501745 12.3431458,167.226005 14,166.985188 Z" id="Oval-Copy-4" fill="#966274"></path>
                    <polygon id="Rectangle-Copy-15" fill="#CBD5DF" fill-rule="nonzero" points="19 158.181808 60 153 60 157.46003 19 163"></polygon>
                    <polygon id="Rectangle-Copy-16" fill="#CBD5DF" fill-rule="nonzero" points="65 150.629833 78 149 78 154.229352 65 156"></polygon>
                    <polygon id="Rectangle-Copy-17" fill="#CBD5DF" fill-rule="nonzero" points="82 148.67375 95 147 95 152.18164 82 154"></polygon>
                    <polygon id="Rectangle-Copy-18" fill="#CBD5DF" fill-rule="nonzero" points="123 142.784336 136 141 136 146.0615 123 148"></polygon>
                    <polygon id="Rectangle-Copy-19" fill="#CBD5DF" fill-rule="nonzero" points="100 146.495146 118 144 118 149.289276 100 152"></polygon>
                    <polygon id="Rectangle-Copy-40" fill="#CBD5DF" fill-rule="nonzero" points="140 141.317936 158 139 158 143.481797 140 146"></polygon>
                    <polygon id="Rectangle-Copy-52" fill="#CBD5DF" fill-rule="nonzero" points="163 137.679611 185 135 185 139.088873 163 142"></polygon>
                    <path d="M14,74.9997435 C15.6568542,75.0312157 17,72.1619822 17,68.5911311 C17,65.0202801 15.6568542,62.0698706 14,62.0012071 C12.3431458,61.9325436 11,64.8017772 11,68.4098195 C11,72.0178619 12.3431458,74.9682714 14,74.9997435 Z" id="Oval-Copy-5" fill="#774757"></path>
                    <polygon id="Rectangle-Copy-20" fill="#CBD5DF" fill-rule="nonzero" points="19 67 60 68.4213267 60 73 19 71.946363"></polygon>
                    <polygon id="Rectangle-Copy-21" fill="#CBD5DF" fill-rule="nonzero" points="65 68 78 68.4612316 78 74 65 73.6879161"></polygon>
                    <polygon id="Rectangle-Copy-22" fill="#CBD5DF" fill-rule="nonzero" points="82 69 95 69.3972396 95 74 82 73.7312152"></polygon>
                    <polygon id="Rectangle-Copy-23" fill="#CBD5DF" fill-rule="nonzero" points="123 71 136 71.4304127 136 76 123 75.7087692"></polygon>
                    <polygon id="Rectangle-Copy-24" fill="#CBD5DF" fill-rule="nonzero" points="100 69 118 69.5596627 118 74 100 73.6213146"></polygon>
                    <polygon id="Rectangle-Copy-41" fill="#CBD5DF" fill-rule="nonzero" points="140 72 158 72.60704 158 77 140 76.5892576"></polygon>
                    <polygon id="Rectangle-Copy-53" fill="#CBD5DF" fill-rule="nonzero" points="163 72 185 72.7450323 185 77 163 76.4958876"></polygon>
                    <path d="M14,188.976193 C15.6568542,188.670809 17,185.537614 17,181.978007 C17,178.4184 15.6568542,175.750277 14,176.018587 C12.3431458,176.286897 11,179.420091 11,183.016772 C11,186.613454 12.3431458,189.281577 14,188.976193 Z" id="Oval-Copy-5" fill="#774757"></path>
                    <polygon id="Rectangle-Copy-20" fill="#CBD5DF" fill-rule="nonzero" points="19 178.001426 60 171 60 175.627003 19 183"></polygon>
                    <polygon id="Rectangle-Copy-21" fill="#CBD5DF" fill-rule="nonzero" points="65 171.266359 78 169 78 174.583294 65 177"></polygon>
                    <polygon id="Rectangle-Copy-22" fill="#CBD5DF" fill-rule="nonzero" points="82 168.323311 95 166 95 171.522564 82 174"></polygon>
                    <polygon id="Rectangle-Copy-23" fill="#CBD5DF" fill-rule="nonzero" points="123 162.157599 136 160 136 164.699269 123 167"></polygon>
                    <polygon id="Rectangle-Copy-24" fill="#CBD5DF" fill-rule="nonzero" points="100 164.340789 118 161 118 166.437588 100 170"></polygon>
                    <polygon id="Rectangle-Copy-42" fill="#CBD5DF" fill-rule="nonzero" points="140 158.136109 158 155 158 159.655847 140 163"></polygon>
                    <polygon id="Rectangle-Copy-54" fill="#CBD5DF" fill-rule="nonzero" points="163 155.021513 185 151 185 155.711706 163 160"></polygon>
                    <path d="M14,97.9997105 C15.6568542,97.9660948 17,95.0438365 17,91.4726638 C17,87.9014911 15.6568542,85.0035823 14,85 C12.3431458,84.9964243 11,87.9186826 11,91.5270499 C11,95.1354173 12.3431458,98.0333261 14,97.9997105 Z" id="Oval-Copy-6" fill="#253F5A"></path>
                    <polygon id="Rectangle-Copy-25" fill="#CBD5DF" fill-rule="nonzero" points="19 88.1824383 60 88 60 92.4594465 19 93"></polygon>
                    <polygon id="Rectangle-Copy-26" fill="#CBD5DF" fill-rule="nonzero" points="65 89.0528689 78 89 78 93.8174081 65 94"></polygon>
                    <polygon id="Rectangle-Copy-27" fill="#CBD5DF" fill-rule="nonzero" points="82 88.0547207 95 88 95 92.8110127 82 93"></polygon>
                    <polygon id="Rectangle-Copy-28" fill="#CBD5DF" fill-rule="nonzero" points="123 88.0595152 136 88 136 92.7944539 123 93"></polygon>
                    <polygon id="Rectangle-Copy-29" fill="#CBD5DF" fill-rule="nonzero" points="100 88.078548 118 88 118 92.728721 100 93"></polygon>
                    <polygon id="Rectangle-Copy-43" fill="#CBD5DF" fill-rule="nonzero" points="140 88.0856683 158 88 158 92.7041297 140 93"></polygon>
                    <polygon id="Rectangle-Copy-55" fill="#CBD5DF" fill-rule="nonzero" points="163 87.1068631 185 87 185 91.6309297 163 92"></polygon>
                    <path d="M14,210.964548 C15.6568542,210.591833 17,207.408988 17,203.855465 C17,200.301942 15.6568542,197.693385 14,198.029089 C12.3431458,198.364794 11,201.547639 11,205.138173 C11,208.728706 12.3431458,211.337264 14,210.964548 Z" id="Oval-Copy-6" fill="#253F5A"></path>
                    <polygon id="Rectangle-Copy-25" fill="#CBD5DF" fill-rule="nonzero" points="19 200.257877 60 192 60 196.389615 19 205"></polygon>
                    <polygon id="Rectangle-Copy-26" fill="#CBD5DF" fill-rule="nonzero" points="65 191.965486 78 189 78 194.876278 65 198"></polygon>
                    <polygon id="Rectangle-Copy-27" fill="#CBD5DF" fill-rule="nonzero" points="82 186.697857 95 184 95 189.158187 82 192"></polygon>
                    <polygon id="Rectangle-Copy-28" fill="#CBD5DF" fill-rule="nonzero" points="123 179.851807 136 177 136 181.996022 123 185"></polygon>
                    <polygon id="Rectangle-Copy-29" fill="#CBD5DF" fill-rule="nonzero" points="100 183.809448 118 180 118 184.987282 100 189"></polygon>
                    <polygon id="Rectangle-Copy-44" fill="#CBD5DF" fill-rule="nonzero" points="140 176.004465 158 172 158 176.781859 140 181"></polygon>
                    <polygon id="Rectangle-Copy-56" fill="#CBD5DF" fill-rule="nonzero" points="163 171.509571 185 167 185 171.249802 163 176"></polygon>
                    <path d="M14,120.997186 C15.6568542,120.89231 17,117.91311 17,114.342956 C17,110.772801 15.6568542,107.933494 14,108.001186 C12.3431458,108.068877 11,111.048077 11,114.655416 C11,118.262754 12.3431458,121.102061 14,120.997186 Z" id="Oval-Copy-7" fill="#85843D"></path>
                    <polygon id="Rectangle-Copy-30" fill="#CBD5DF" fill-rule="nonzero" points="19 111.978694 60 110 60 114.648045 19 117"></polygon>
                    <polygon id="Rectangle-Copy-31" fill="#CBD5DF" fill-rule="nonzero" points="65 109.600451 78 109 78 114.257963 65 115"></polygon>
                    <polygon id="Rectangle-Copy-32" fill="#CBD5DF" fill-rule="nonzero" points="82 108.61952 95 108 95 113.234398 82 114"></polygon>
                    <polygon id="Rectangle-Copy-33" fill="#CBD5DF" fill-rule="nonzero" points="123 107.556946 136 107 136 111.311726 123 112"></polygon>
                    <polygon id="Rectangle-Copy-34" fill="#CBD5DF" fill-rule="nonzero" points="100 107.854551 118 107 118 111.943945 100 113"></polygon>
                    <polygon id="Rectangle-Copy-45" fill="#CBD5DF" fill-rule="nonzero" points="140 106.767721 158 106 158 110.051251 140 111"></polygon>
                    <polygon id="Rectangle-Copy-57" fill="#CBD5DF" fill-rule="nonzero" points="163 104.925868 185 104 185 107.855813 163 109"></polygon>
                    <path d="M14,233.950672 C15.6568542,233.511012 17,230.279831 17,226.733629 C17,223.187427 15.6568542,220.639136 14,221.041863 C12.3431458,221.444589 11,224.675769 11,228.258906 C11,231.842043 12.3431458,234.390333 14,233.950672 Z" id="Oval-Copy-7" fill="#85843D"></path>
                    <polygon id="Rectangle-Copy-30" fill="#CBD5DF" fill-rule="nonzero" points="19 223.133176 60 213 60 217.505047 19 228"></polygon>
                    <polygon id="Rectangle-Copy-31" fill="#CBD5DF" fill-rule="nonzero" points="65 212.33095 78 209 78 214.520397 65 218"></polygon>
                    <polygon id="Rectangle-Copy-32" fill="#CBD5DF" fill-rule="nonzero" points="82 208.404292 95 205 95 210.443782 82 214"></polygon>
                    <polygon id="Rectangle-Copy-33" fill="#CBD5DF" fill-rule="nonzero" points="123 196.585889 136 193 136 198.254081 123 202"></polygon>
                    <polygon id="Rectangle-Copy-34" fill="#CBD5DF" fill-rule="nonzero" points="100 203.673801 118 199 118 204.117617 100 209"></polygon>
                    <polygon id="Rectangle-Copy-46" fill="#CBD5DF" fill-rule="nonzero" points="140 193.404516 158 189 158 193.39892 140 198"></polygon>
                    <polygon id="Rectangle-Copy-58" fill="#CBD5DF" fill-rule="nonzero" points="163 188.456089 185 183 185 187.300417 163 193"></polygon>
                </g>
                <path d="M303.787579,225.706251 C303.569118,225.819321 292.944589,221.825347 260.80015,211.882568 L237.934462,201.745238 C237.934462,201.745238 234.1861,195.522975 227.555258,193.570185 C220.924415,191.617394 218.727315,192.529447 218.727315,192.529447 C218.727315,192.529447 191.080464,203.621014 190.415204,207.098159 C189.749944,210.575304 205.922545,204.509933 205.922545,204.509933 C205.922545,204.509933 203.178669,222.019937 218.727315,222.941516 C234.275961,223.863094 238.849088,220.176781 238.849088,220.176781 C238.849088,220.176781 304.702173,275.471527 315.677685,257.961523 C326.653196,240.451519 304.00604,225.59318 303.787579,225.706251 Z" id="Path" fill="#C7AD8D" transform="translate(254.536849, 226.852414) rotate(23.000000) translate(-254.536849, -226.852414) "></path>
                <path d="M302.853448,249.828621 L283.313103,273.555862 C283.313103,273.555862 282.452414,272.556207 281,270.843793 C281.313793,264.200345 295.344828,249.541724 297.828276,247.313793 C297.974375,247.18293 298.140956,247.076925 298.321379,247 C301.037931,248.721379 302.853448,249.828621 302.853448,249.828621 Z" id="Path" fill="#000000" opacity="0.1"></path>
                <path d="M308.696599,252.579682 C308.696599,252.579682 300.343932,243.875622 297.737129,246.489636 C295.130326,249.103649 278.684836,268.249784 282.599232,273.184259 C286.513627,278.118734 310,298.709333 310,298.709333 L308.696599,252.579682 Z" id="Path" fill="#738394"></path>
                <path d="M308.696599,252.579682 C308.696599,252.579682 300.343932,243.875622 297.737129,246.489636 C295.130326,249.103649 278.684836,268.249784 282.599232,273.184259 C286.513627,278.118734 310,298.709333 310,298.709333 L308.696599,252.579682 Z" id="Path" fill="#000000" opacity="0.1"></path>
                <path d="M380.565722,174.496902 L379.979773,174.496902 C380.443262,173.992186 380.697348,173.335253 380.691926,172.655651 L380.691926,172.655651 C380.747813,171.245693 379.630605,170.057522 378.194884,170 L360.688546,170 C359.253949,170.059907 358.138128,171.246603 358.191504,172.655651 L358.191504,172.655651 C358.138128,174.064698 359.253949,175.251394 360.688546,175.311301 L361.274494,175.311301 C360.812517,175.816923 360.558662,176.473258 360.562342,177.152552 C360.536275,178.332771 361.319759,179.383393 362.473435,179.715255 L357.434278,179.715255 C356.052231,179.851481 355,180.993663 355,182.357628 C355,183.721593 356.052231,184.863774 357.434278,185 L374.940616,185 C376.375213,184.940093 377.491034,183.753397 377.437658,182.344349 C377.462157,181.164617 376.679296,180.11483 375.526565,179.781647 L380.565722,179.781647 C381.947769,179.645421 383,178.503239 383,177.139274 C383,175.775309 381.947769,174.633128 380.565722,174.496902 Z" id="Path" fill="#6C63FF" opacity="0.1"></path>
                <path d="M387,187.839642 C387,187.839642 378.287667,196.262787 367.375974,205.399454 L366.963874,205.740508 L366.327807,206.27004 L366.327807,206.27004 C348.921059,220.693049 326.488482,236.255898 324.177138,222.936828 C323.918277,221.198525 323.907719,219.432157 324.145782,217.690873 C324.172659,217.435082 324.208493,217.170317 324.244328,216.901063 C324.280163,216.63181 324.315998,216.380506 324.342874,216.124716 C324.777298,212.768268 325.01809,209.389508 325.064049,206.005274 C325.064049,205.435354 325.064049,204.869922 325.064049,204.308977 C324.949182,191.920139 322.518253,179.662548 317.897091,168.170678 C317.62833,167.48857 317.35509,166.824411 317.090809,166.191666 L317.090809,166.191666 C313.50733,157.629406 310,152.630267 310,152.630267 C310,152.630267 315.182606,149.488977 322.367481,145.450176 C325.005817,143.978257 327.908435,142.394149 330.927516,140.805554 C347.501105,132.099693 367.429727,123.393832 364.670448,133.625462 C363.366958,138.467537 364.576382,144.893719 366.977312,151.620567 C367.111693,151.993034 367.246073,152.356526 367.384933,152.724506 C368.941516,156.789576 370.73638,160.759 372.760151,164.612045 L372.894532,164.872324 C375.774753,170.400994 378.878941,175.566173 381.450087,179.582537 C382.068237,180.551849 382.655032,181.458336 383.201513,182.275071 C385.454625,185.73049 387,187.839642 387,187.839642 Z" id="Path" fill="#C7AD8D"></path>
                <path d="M367,152.527886 C366.8709,152.719251 366.732896,152.910617 366.594892,153.097532 C362.436973,158.749497 357.624649,162.113974 351.904171,164.00983 C347.959934,165.322688 343.570525,165.941288 338.651359,166.137105 C337.427132,166.181608 336.176195,166.20386 334.885192,166.20386 C331.909863,166.209216 328.93683,166.038319 325.981724,165.692068 C324.428069,165.447298 322.803187,166.493134 321.231724,167.258597 C320.060918,167.823793 318.916823,168.237677 317.848407,167.846045 C317.581303,167.169589 317.309747,166.510935 317.047095,165.883434 L317.047095,165.883434 C313.485708,157.392135 310,152.434428 310,152.434428 C310,152.434428 315.150656,149.319172 322.291237,145.313842 C324.913308,143.854122 327.798032,142.283143 330.7985,140.707714 C347.269916,132.074004 367.075679,123.440294 364.333411,133.587128 C363.037957,138.389073 364.239925,144.761997 366.626054,151.433095 C366.728444,151.802476 366.861996,152.162955 367,152.527886 Z" id="Path" fill="#000000" opacity="0.1"></path>
                <path d="M358,127.000027 C358,127.658167 358,128.307291 357.965928,128.956415 C357.295209,148.590999 346.645199,165.123581 332.098406,169.111953 C328.230335,170.164984 324.2501,170.282582 320.350354,169.459054 C319.201908,169.22182 318.064395,168.89976 316.943146,168.494384 C315.857796,168.104857 314.788721,167.639908 313.740371,167.101472 L313.740371,167.101472 C304.964786,162.588016 298.098119,153.26484 294.915085,141.54155 C291.732051,129.818261 292.545014,116.845316 297.143862,105.975619 L297.430067,105.312971 C304.835639,88.5445223 319.81698,80.4237319 333.986559,85.4971478 C348.156139,90.5705636 357.997169,107.579001 358,127.000027 L358,127.000027 Z" id="Path" fill="#C7AD8D"></path>
                <path d="M387,188.023621 C387,188.023621 319.246434,253.389923 324.265714,216.952219 C324.834692,212.7984 325.112971,208.610086 325.098529,204.417684 C327.449744,201.517706 329.946922,198.738608 332.580436,196.091108 L342.099606,189.225257 C351.914858,182.078231 363.882984,178.491133 376.021164,179.058257 C377.852254,179.104802 379.672424,179.355015 381.447897,179.804254 C384.640356,184.793946 387,188.023621 387,188.023621 Z" id="Path" fill="#000000" opacity="0.1"></path>
                <path d="M435,300.770043 C432.525914,301.508426 429.993773,302.148357 427.439302,302.707738 C426.17993,302.989666 424.911626,303.249219 423.643322,303.490872 C421.486313,303.907051 419.320371,304.27848 417.167828,304.618583 C406.387246,306.314626 395.508415,307.415488 384.567062,308.198621 L382.780718,308.319447 L381.682117,308.391048 C380.011886,308.502924 378.341655,308.601375 376.67589,308.695351 C369.999432,309.071255 363.314042,309.344233 356.628652,309.59036 C351.716208,309.760412 346.852888,309.903614 341.967239,310.037865 L332.030704,310.328743 L329.462836,310.404819 L328.337439,310.436144 C325.395927,310.525645 322.451438,310.610671 319.503972,310.691222 L316.083124,310.789673 L309.728208,310.9642 L308.38845,311 C308.031181,307.840617 307.3747,302.099132 306.678026,296.366597 L306.678026,296.366597 L306.517255,295.024083 C305.749128,288.700842 304.954205,282.628203 304.494222,280.328029 C303.382223,274.756596 304.494222,251.625079 304.494222,251.625079 L304.6148,251.432652 L304.6148,251.432652 L305.141771,250.537643 C307.772162,246.138672 317.525596,229.303546 317.28444,222.067395 C317.141532,217.748975 321.303712,211.50181 325.322985,206.467382 C325.849956,205.814026 326.372462,205.178569 326.886035,204.574438 C330.088056,200.801973 332.830093,198.116945 332.830093,198.116945 L342.320042,191.234323 C352.114562,184.081587 364.051449,180.491732 376.15785,181.058067 C379.730537,181.241544 382.579755,181.742749 383.303224,182.821235 L383.303224,182.821235 C383.611368,182.995762 390.533448,186.978554 398.125408,195.865997 C401.82317,200.193002 405.039686,204.910661 407.718071,209.935544 C407.798457,210.078745 407.878842,210.226422 407.954762,210.383048 C407.954762,210.383048 425.197441,239.085998 427.421438,256.364154 C429.645436,273.64231 432.985898,287.850583 432.985898,287.850583 C432.985898,287.850583 433.937126,293.305665 435,300.770043 Z" id="Path" fill="#738394"></path>
                <path d="M379.997556,284.845363 C378.484542,287.316869 379.935071,299.912129 381.546274,307.95013 C379.87705,308.062268 378.207826,308.160948 376.543065,308.255144 C369.870631,308.631925 363.189271,308.90554 356.507911,309.152242 C351.598428,309.322691 346.73804,309.466227 341.855336,309.600791 L331.924791,309.892348 L329.35847,309.968602 L328.233752,310 C328.755943,308.102637 328.858596,306.12005 327.470551,305.236408 C324.413282,303.280734 318.57546,290.707901 318.57546,290.707901 C318.57546,290.707901 313.576714,291.829274 313.018818,250.787026 C312.860698,244.496267 313.699857,238.220308 315.504802,232.194663 C316.085935,230.305974 316.788121,228.457076 317.606953,226.659567 C319.366964,222.764307 321.6923,219.153043 324.507009,215.943727 L324.507009,215.943727 C334.058185,205.079867 346.081955,202.487253 346.081955,202.487253 C348.171674,202.138297 350.288058,201.976185 352.406261,202.00282 L352.459819,202.00282 C357.50529,202.060942 362.469291,203.288962 366.96511,205.591213 C368.888541,206.554908 370.7266,207.681868 372.459268,208.959817 C374.083195,210.170659 375.622169,211.492524 377.065255,212.916021 C392.650632,228.166692 396.337208,251.980167 386.710158,271.595221 C383.639499,277.879395 380.858947,283.436919 379.997556,284.845363 Z" id="Path" fill="#000000" opacity="0.1"></path>
                <path d="M382.983863,287.119377 C381.613793,289.36875 382.67147,299.900315 384.077242,307.858597 L382.292134,307.980063 L381.194293,308.052043 C379.525218,308.164512 377.856142,308.263484 376.191529,308.357958 C369.51969,308.735852 362.838925,309.010276 356.158161,309.257707 C351.249115,309.428659 346.38916,309.572619 341.506891,309.707581 L331.577231,310 C331.577231,308.974286 331.264837,308.088033 330.457076,307.570677 C329.893132,307.161119 329.393643,306.668219 328.975437,306.108585 C328.846016,305.951128 328.712133,305.780176 328.57825,305.604725 C325.485551,301.465878 321.56724,293.008236 321.56724,293.008236 C321.56724,293.008236 316.564477,294.128423 316.006631,252.969394 C315.82812,239.554133 319.273377,229.737869 323.999449,222.598359 C333.790764,207.815479 349.075747,204.504401 349.075747,204.504401 C354.73929,203.51132 360.56047,203.989749 365.98964,205.894514 C368.119309,206.647728 370.170187,207.610611 372.112559,208.769213 C374.7167,210.348375 377.144993,212.205016 379.355632,214.307169 L380.069675,214.995478 C395.653664,230.291215 399.335448,254.175058 389.709256,273.848075 C386.625483,280.132824 383.845178,285.70677 382.983863,287.119377 Z" id="Path" fill="#000000" opacity="0.1"></path>
                <path d="M380.987986,284.875899 C379.479377,287.343005 380.916573,299.871412 382.523375,307.909689 L381.425394,307.98146 C379.756104,308.093601 378.086815,308.192285 376.421989,308.286483 C369.749296,308.663278 363.067676,308.936902 356.386056,309.183613 C351.476382,309.354067 346.615805,309.497608 341.732911,309.632177 L331.80198,309.923744 L329.235559,310 C329.628333,308.551136 329.775623,307.057417 329.199852,306.043661 C329.092987,305.857309 328.959107,305.687988 328.802615,305.541268 C328.699958,305.435903 328.584487,305.343969 328.458938,305.267644 C325.40155,303.311903 319.563501,290.738638 319.563501,290.738638 C319.563501,290.738638 314.564561,291.86005 314.006643,250.816393 C313.801329,235.448572 318.380716,224.799649 324.191985,217.523932 C333.913139,205.336433 347.079992,202.492534 347.079992,202.492534 C348.80385,202.205143 350.546108,202.043239 352.293174,202.008084 L352.346734,202.008084 C357.502175,201.893426 362.612098,202.999809 367.263216,205.237749 C371.262469,207.19917 374.913187,209.808817 378.068962,212.962031 C378.586709,213.468909 379.09553,213.984758 379.582034,214.509578 C393.864722,229.801144 397.024767,252.682422 387.71424,271.643245 C384.630072,277.909692 381.849411,283.467407 380.987986,284.875899 Z" id="Path" fill="#738394"></path>
                <path d="M377,309.059518 C370.230421,309.454521 363.451786,309.741368 356.67315,310 C345.067511,308.589277 333,306.515515 333,306.515515 C334.046002,305.88069 371.072656,305.114197 377,309.059518 Z" id="Path" fill="#000000" opacity="0.1"></path>
                <path d="M428,302.211712 C426.597015,302.495495 425.18408,302.756757 423.771144,303 C423.218905,294.941441 423,288 423,288 C424.938523,292.65528 426.607459,297.398965 428,302.211712 Z" id="Path" fill="#000000" opacity="0.1"></path>
                <path d="M320,310.901043 L316.540199,311 C313.785005,303.506236 311.418248,294.618074 310.451671,290.844204 C310.153568,289.679207 310,289 310,289 L310.429088,289.899612 C311.851852,292.854835 316.567299,302.714578 320,310.901043 Z" id="Path" fill="#000000" opacity="0.1"></path>
                <path d="M373.164238,141.947527 C371.790577,145.520999 369.937281,148.893219 367.654757,151.972466 C367.789794,152.344092 367.92483,152.706763 368.064367,153.073911 C369.628547,157.129796 371.432171,161.090251 373.465819,164.934591 L373.600855,165.194281 C373.834918,166.985249 374.159005,168.776216 374.532606,170.522409 C367.690767,170.880602 360.841426,171.037312 353.984583,170.992538 C351.004783,170.992538 347.97997,170.907467 345.139706,170.020938 C343.9663,169.652242 342.841881,169.144117 341.790806,168.507571 C340.945697,167.997841 340.147395,167.415014 339.405165,166.765855 C335.703431,163.438398 333.366527,158.86901 332.842401,153.933575 C332.432791,150.087473 333.017949,146.102571 331.897147,142.399746 C331.768044,141.987903 331.617807,141.582912 331.447026,141.186366 C329.582852,136.896831 325.603628,133.885754 320.950205,133.243427 C320.288078,133.099812 319.596236,133.193367 318.99668,133.507594 C318.485322,133.930904 318.116242,134.499564 317.938896,135.137374 L313.298149,147.177151 C309.994261,148.000996 307.662634,143.707152 307.937208,140.331179 C308.211782,136.955206 309.737692,133.498639 308.607888,130.301763 C308.261295,129.312254 307.671637,128.412293 307.419569,127.400396 C306.415799,123.411017 310.727958,119.869379 310.763968,115.759109 C310.790975,112.378659 307.883194,109.647434 304.795364,108.241525 C301.964103,106.952028 298.835762,106.396828 296,105.138674 C305.792318,88.4997903 325.576453,80.4487914 344.285091,85.4894342 C362.99373,90.530077 375.988466,107.412642 376,126.692964 C376,127.346667 376,127.991415 375.954988,128.636163 C375.749928,133.193633 374.807588,137.688418 373.164238,141.947527 L373.164238,141.947527 Z" id="Path" fill="#000000" opacity="0.1"></path>
                <path d="M330.09662,70.1575504 C327.249005,69.8720472 324.119757,69.8006714 321.813054,71.4958466 C319.390121,73.2802415 318.585458,76.4743085 316.97613,79.0126103 C313.904997,83.8661645 308.111417,86.0832752 303.220849,89.1033637 C298.330282,92.1234521 293.698994,97.5167858 295.335144,103.021644 C298.348163,104.53838 301.767984,105.069237 304.834647,106.469987 C307.901311,107.870737 310.78916,110.59194 310.762337,113.959985 C310.726575,118.055172 306.443975,121.583812 307.440864,125.558552 C307.691204,126.566735 308.27682,127.463394 308.621038,128.449272 C309.734156,131.634417 308.227646,135.078299 307.954955,138.441884 C307.682263,141.805468 309.997907,146.083555 313.279147,145.262733 L317.919375,133.267138 C318.095505,132.631668 318.462055,132.065096 318.969908,131.643339 C319.565354,131.330265 320.252454,131.237053 320.910042,131.380141 C325.979701,132.088243 330.192987,135.635321 331.746181,140.50286 C332.8593,144.192096 332.278153,148.162375 332.684956,151.994363 C333.431505,159.060567 338.111966,165.8948 344.906905,168.022691 C347.727698,168.914888 350.718366,168.972881 353.691151,168.990725 C360.495031,169.041283 367.29742,168.885148 374.098319,168.522321 C372.421937,160.65314 371.737972,151.958675 375.801525,145.017379 C377.540492,142.046361 380.048361,139.597279 381.961673,136.733326 C385.090921,132.067133 386.512494,126.49536 387.661375,121.003884 C388.555446,116.841783 389.284114,112.586001 388.890722,108.352524 C388.23358,101.255093 384.456131,94.8758813 380.772559,88.7732506 C378.832425,85.5568787 376.793943,82.2379041 373.669165,80.159084 C367.16927,75.8408483 359.203098,78.5486676 352.256168,76.0683586 C344.875612,73.4408371 338.129847,70.9694501 330.09662,70.1575504 Z" id="Path" fill="#09213B"></path>
                <g id="Group" opacity="0.1" stroke-width="1" transform="translate(295.000000, 100.000000)" fill="#000000">
                    <path d="M14.2903302,30.5101911 C14.5291758,29.0906992 14.4294025,27.6352253 13.9990566,26.2611465 C13.6853774,25.3694268 13.1790094,24.544586 12.8966981,23.643949 C12.6249819,24.5712323 12.5987403,25.5526474 12.8205189,26.4929936 C13.0714623,27.5006369 13.6584906,28.3968153 13.9990566,29.3821656 C14.1280397,29.7493002 14.2254804,30.1266624 14.2903302,30.5101911 L14.2903302,30.5101911 Z" id="Path"></path>
                    <path d="M15.9393868,13.3401274 C16.0684996,12.8296356 16.1376724,12.3059674 16.1455189,11.7796178 C16.1724057,8.41783439 13.2820755,5.69363057 10.2080189,4.29363057 C7.13396226,2.89363057 3.70589623,2.36305732 0.685613208,0.847133758 C0.611714088,0.599189388 0.550394498,0.347704015 0.501886792,0.0936305732 C0.250098472,1.38111974 0.313111374,2.70997001 0.685613208,3.96815287 C3.70589623,5.48407643 7.13396226,6.01464968 10.2080189,7.41464968 C12.7936321,8.59171975 15.2358491,10.7050955 15.9393868,13.3401274 Z" id="Path"></path>
                    <path d="M59.1778302,66.7808917 C56.2158019,66.7808917 53.2044811,66.6961783 50.3768868,65.8133758 C43.565566,63.6866242 38.8738208,56.856051 38.1254717,49.7936306 C37.7176887,45.9636943 38.3002358,42 37.184434,38.3082803 C35.6247146,33.4381213 31.3929243,29.8917891 26.3042453,29.1904459 C25.6450714,29.0474349 24.956315,29.1405968 24.359434,29.4535032 C23.8488251,29.8736822 23.4810541,30.4404715 23.3063679,31.0764331 L18.6863208,43.0656051 C16.0424528,43.7254777 14.0259434,41.0949045 13.4747642,38.2904459 C13.4254717,38.6515924 13.3761792,39.0127389 13.3492925,39.3694268 C13.0714623,42.7312102 15.3971698,47.0070064 18.6863208,46.1866242 L23.3377358,34.1974522 C23.5124221,33.5614906 23.880193,32.9947013 24.3908019,32.5745223 C24.9876829,32.2616159 25.6764394,32.168454 26.3356132,32.311465 C31.4174943,33.0191882 35.6409383,36.5643665 37.1978774,41.4292994 C38.3136792,45.1210191 37.7311321,49.0847134 38.1389151,52.9146497 C38.8872642,59.9770701 43.5790094,66.8076433 50.3903302,68.9343949 C53.2179245,69.8261146 56.2158019,69.8840764 59.1912736,69.9019108 C66.0175314,69.9524416 72.8378145,69.8038217 79.6521226,69.456051 C79.4370283,68.4350318 79.2353774,67.4006369 79.0561321,66.3617834 C72.4330189,66.6857749 65.8069182,66.8254777 59.1778302,66.7808917 Z" id="Path"></path>
                    <path d="M93.234434,18.8197452 C92.0783019,24.3082803 90.6488208,29.8770701 87.5209906,34.5407643 C85.603066,37.4031847 83.0891509,39.8509554 81.3459906,42.8203822 C78.8544811,47.0605096 78.1464623,51.956051 78.3525943,56.9184713 C78.5228774,53.043949 79.3787736,49.2898089 81.3459906,45.9414013 C83.0891509,42.9719745 85.603066,40.5242038 87.5209906,37.6617834 C90.657783,32.9980892 92.0783019,27.4292994 93.234434,21.9407643 C94.05,18.066242 94.7580189,14.111465 94.5339623,10.1656051 C94.3219837,13.0789337 93.887554,15.9719951 93.234434,18.8197452 L93.234434,18.8197452 Z" id="Path"></path>
                </g>
                <g id="Group-2" stroke-width="1" transform="translate(104.000000, 202.000000)">
                    <path d="M0,36 C0,71.3749994 28.17773,100 63,100" id="Path" fill="#85843D"></path>
                    <path d="M49.4990829,90.5239015 C45.4490612,53.7385543 72.5161569,26.7604071 110.015914,30.2059481" id="Path" fill="#FFCA04" transform="translate(79.556879, 60.216667) rotate(-24.000000) translate(-79.556879, -60.216667) "></path>
                    <path d="M23,41 C23,73.6113284 41.3378879,100 64,100" id="Path" fill="#FFCA04"></path>
                    <path d="M45.4924288,89.5761599 C40.2938934,42.3591459 71.222815,7.38005134 114.643607,11.369627" id="Path" fill="#85843D" transform="translate(79.782939, 50.317883) rotate(-24.000000) translate(-79.782939, -50.317883) "></path>
                </g>
            </g>
        </g>
    </g>
</svg>